<svg width="50" height="45" viewBox="0 0 50 45" fill="none" xmlns="http://www.w3.org/2000/svg">
<g clip-path="url(#clip0_77_884)">
<path d="M28.1411 15.5347C28.2272 15.5347 28.3132 15.5347 28.3993 15.5347C28.3993 15.7035 28.4853 15.9568 28.4853 16.1257C28.4853 18.4052 28.4853 20.6848 28.4853 22.9643C28.4853 23.7242 28.9156 24.1463 29.6902 24.1463C30.4647 24.1463 30.895 23.7242 30.895 22.9643C30.895 20.4315 30.895 17.8142 30.895 15.2814C30.895 15.0281 30.895 14.7748 30.8089 14.5215C30.3786 12.6641 29.1738 11.651 27.3666 11.3133C26.1618 11.06 24.8709 11.1444 23.6661 11.06C22.8055 11.06 22.117 10.8067 21.4285 10.3846C20.0516 9.54028 19.2771 8.18944 18.8468 6.75417C18.5026 5.74103 18.2444 4.7279 17.9001 3.63034C17.728 3.03935 17.1256 2.78606 16.4371 2.95492C15.7487 3.12377 15.4044 3.71477 15.6626 4.30576C15.8347 4.7279 15.9208 5.15004 16.0929 5.65661C16.6093 7.09188 16.8674 8.69601 17.8141 9.96242C18.4165 10.8067 19.0189 11.651 19.6213 12.4953C20.568 13.8461 21.1704 15.3658 21.2564 17.0544C21.3425 19.5872 21.3425 22.2045 21.3425 24.7373C21.3425 28.1144 21.3425 31.5759 21.3425 34.953C21.3425 35.7129 21.9449 36.3039 22.6334 36.3883C23.6661 36.5572 24.4406 35.8818 24.4406 34.7842C24.4406 31.4915 24.4406 28.2833 24.4406 24.9906C24.4406 24.9061 24.3545 24.8217 24.4406 24.7373C24.5266 24.5684 24.6988 24.484 24.7848 24.3996C24.8709 24.484 25.043 24.5684 25.043 24.7373C25.1291 24.8217 25.043 24.9906 25.043 25.1594C25.043 28.4521 25.043 31.6604 25.043 34.953C25.043 35.7973 25.6454 36.3883 26.506 36.4727C27.5387 36.5572 28.3132 35.8818 28.3132 34.7842C28.3132 28.621 28.3132 22.4577 28.3132 16.2101C28.1411 16.0412 28.1411 15.7879 28.1411 15.5347Z" fill="black"/>
<path d="M39.5008 16.2945C39.5868 16.2945 39.6729 16.2945 39.6729 16.2945C39.6729 16.4634 39.6729 16.6322 39.6729 16.8011C39.6729 18.0675 39.6729 19.2495 39.6729 20.5159C39.6729 21.1069 39.9311 21.4446 40.5335 21.4446C41.1359 21.4446 41.3941 21.1913 41.3941 20.5159C41.3941 19.0806 41.3941 17.7298 41.3941 16.2945C41.3941 14.7748 40.6195 13.7617 39.0705 13.3396C37.7796 13.0018 36.4027 13.0018 35.1118 13.2551C33.2185 13.5928 32.3579 14.6904 32.3579 16.5478C32.3579 17.8987 32.3579 19.1651 32.3579 20.5159C32.3579 21.1069 32.6161 21.4446 33.2185 21.4446C33.8209 21.4446 34.0791 21.1913 34.0791 20.5159C34.0791 19.2495 34.0791 18.0675 34.0791 16.8011C34.0791 16.6322 34.1651 16.4634 34.1651 16.2945C34.2512 16.2945 34.2512 16.2945 34.3373 16.2945C34.3373 16.4634 34.3373 16.6322 34.3373 16.8011C34.3373 21.2758 34.3373 25.666 34.3373 30.1407C34.3373 30.4784 34.5094 30.9005 34.6815 31.1538C35.0257 31.4915 35.456 31.4915 35.8863 31.3227C36.3166 31.1538 36.5748 30.7317 36.5748 30.3095C36.5748 27.9456 36.5748 25.5816 36.5748 23.2176C36.5748 23.0487 36.7469 22.8799 36.7469 22.711C36.833 22.8799 37.0051 23.0487 37.0051 23.1332C37.0051 23.6397 37.0051 24.1463 37.0051 24.6529C37.0051 26.5103 37.0051 28.3677 37.0051 30.2251C37.0051 30.5628 37.1772 30.9005 37.4354 31.1538C37.7796 31.4915 38.2099 31.4915 38.7262 31.2382C39.2426 30.985 39.3287 30.5628 39.3287 30.1407C39.3287 25.666 39.3287 21.1913 39.3287 16.7167C39.5008 16.6322 39.5008 16.4634 39.5008 16.2945Z" fill="black"/>
<path d="M10.3269 15.8724C10.413 15.8724 10.413 15.8724 10.4991 15.8724C10.4991 15.9568 10.5851 16.1257 10.5851 16.2101C10.5851 18.4052 10.5851 20.6003 10.5851 22.7954C10.5851 25.1594 10.5851 27.439 10.5851 29.803C10.5851 30.3939 10.8433 30.7317 11.3596 30.9005C12.2202 31.1538 12.9087 30.6472 12.9087 29.7185C12.9087 27.3545 12.9087 25.075 12.9087 22.711C12.9087 22.5422 13.0808 22.3733 13.1669 22.2045C13.2529 22.3733 13.339 22.5422 13.4251 22.711C13.4251 22.7954 13.4251 22.9643 13.4251 23.1332C13.4251 25.3283 13.4251 27.5234 13.4251 29.6341C13.4251 29.8874 13.5111 30.2251 13.5972 30.3939C13.8553 30.8161 14.3717 30.9849 14.888 30.8161C15.4044 30.6472 15.6626 30.3095 15.6626 29.6341C15.6626 25.1594 15.6626 20.6848 15.6626 16.2101C15.6626 16.0412 15.6626 15.8724 15.7486 15.7035C15.8347 15.7035 15.8347 15.7035 15.9208 15.7035C15.9208 15.8724 16.0068 16.0412 16.0068 16.2101C16.0068 17.4765 16.0068 18.6585 16.0068 19.9249C16.0068 20.5159 16.265 20.8536 16.8674 20.8536C17.4698 20.8536 17.728 20.5159 17.728 19.9249C17.728 18.5741 17.728 17.1388 17.728 15.7879C17.728 14.2682 16.9535 13.2551 15.4905 12.833C14.1135 12.4108 12.8226 12.4953 11.4457 12.7485C9.8106 13.0018 8.60578 14.0994 8.69184 15.9568C8.77789 17.3076 8.69184 18.6585 8.69184 20.0093C8.69184 20.6003 8.95001 20.938 9.55242 20.938C10.1548 20.938 10.413 20.6003 10.413 20.0093C10.413 18.7429 10.413 17.5609 10.413 16.2945C10.3269 16.2101 10.3269 16.0412 10.3269 15.8724Z" fill="black"/>
<path d="M24.9569 45C26.9362 45 28.9156 45 30.8949 45C31.4113 45 31.7555 44.8311 31.8416 44.3245C31.9276 43.9868 31.9276 43.6491 31.8416 43.3958C31.2392 41.6228 30.6368 39.9343 30.0343 38.2457C29.8622 37.8236 29.6041 37.5703 29.0877 37.5703C26.3338 37.5703 23.666 37.5703 20.9121 37.5703C20.3097 37.5703 20.0516 37.8236 19.8794 38.3302C19.4491 39.4277 19.1049 40.6097 18.6746 41.7073C18.4164 42.2983 18.2443 42.9737 18.0722 43.5647C17.814 44.4934 18.2443 45.0844 19.277 45.0844C21.1703 45 23.0636 45 24.9569 45Z" fill="black"/>
<path d="M48.451 16.6323C48.537 16.6323 48.537 16.6323 48.6231 16.6323C48.6231 16.8012 48.6231 16.8856 48.6231 17.0545C48.6231 18.0676 48.6231 18.9963 48.6231 20.0094C48.6231 20.6004 48.8813 20.7693 49.3116 20.7693C49.7419 20.7693 50 20.516 50 20.0094C50 18.9119 50 17.7299 50 16.6323C50 15.3659 49.3976 14.5216 48.1928 14.1839C47.074 13.8462 45.8692 13.8462 44.7505 14.0995C43.3735 14.4372 42.6851 15.2815 42.6851 16.6323C42.6851 17.7299 42.6851 18.8274 42.6851 19.925C42.6851 20.4316 42.9432 20.6849 43.3735 20.6849C43.8899 20.6849 44.062 20.4316 44.062 19.925C44.062 18.9963 44.062 18.0676 44.062 17.0545C44.062 16.8856 44.062 16.7167 44.062 16.5479C44.1481 16.5479 44.1481 16.5479 44.2341 16.5479C44.2341 16.7167 44.2341 16.97 44.2341 17.1389C44.2341 20.6849 44.2341 24.2308 44.2341 27.7768C44.2341 28.4522 44.5783 28.7899 45.1808 28.7899C45.7832 28.7899 46.1274 28.4522 46.1274 27.6924C46.1274 26.4259 46.1274 25.0751 46.1274 23.8087C46.1274 23.2177 46.1274 22.6267 46.1274 22.0357C46.1274 21.9513 46.2995 21.8668 46.2995 21.698C46.3856 21.7824 46.3856 21.8668 46.4716 22.0357C46.4716 22.1201 46.4716 22.289 46.4716 22.3734C46.4716 24.1464 46.4716 26.0038 46.4716 27.7768C46.4716 28.4522 47.074 28.8743 47.6765 28.7055C48.1928 28.5366 48.2789 28.1145 48.2789 27.6924C48.2789 24.1464 48.2789 20.6004 48.2789 17.0545C48.451 16.97 48.451 16.8012 48.451 16.6323Z" fill="black"/>
<path d="M1.37706 16.6322C1.46311 16.6322 1.54917 16.6322 1.54917 16.6322C1.54917 16.8011 1.54917 16.9699 1.54917 17.1388C1.54917 20.6848 1.54917 24.2307 1.54917 27.8611C1.54917 28.5365 1.89341 28.9587 2.49582 28.9587C3.09823 28.9587 3.44246 28.5365 3.44246 27.8611C3.44246 26.0881 3.44246 24.2307 3.44246 22.4577C3.44246 22.2889 3.44246 22.2045 3.44246 22.0356C3.44246 21.9512 3.52852 21.8668 3.61458 21.8668C3.70064 21.9512 3.78669 21.9512 3.78669 22.0356C3.78669 22.12 3.78669 22.2889 3.78669 22.4577C3.78669 24.3152 3.78669 26.0881 3.78669 27.9455C3.78669 28.7054 4.30304 29.0431 4.90545 28.9587C5.33575 28.8743 5.59392 28.5365 5.59392 27.9455C5.59392 24.3996 5.59392 20.8536 5.59392 17.2232C5.59392 17.0544 5.59392 16.8855 5.59392 16.7167C5.67998 16.7167 5.67998 16.7167 5.76604 16.7167C5.76604 16.8855 5.76604 17.0544 5.76604 17.1388C5.76604 18.0675 5.76604 18.9962 5.76604 19.9249C5.76604 20.5159 5.93816 20.7692 6.45451 20.7692C6.97086 20.7692 7.14298 20.5159 7.14298 19.9249C7.14298 18.8274 7.14298 17.7298 7.14298 16.5478C7.14298 15.2814 6.54057 14.5215 5.33575 14.1838C4.13093 13.8461 2.84005 13.8461 1.54917 14.1838C0.51647 14.4371 -0.171998 15.2814 -0.258057 16.2945C-0.258057 17.5609 -0.258057 18.7429 -0.258057 20.0093C-0.258057 20.5159 0.000118941 20.6848 0.430412 20.6848C0.860704 20.6848 1.11888 20.4315 1.11888 20.0093C1.11888 18.9962 1.11888 18.0675 1.11888 17.0544C1.37706 16.9699 1.37706 16.8011 1.37706 16.6322Z" fill="black"/>
<path d="M21.7727 7.76739C21.7727 9.37152 23.0636 10.6379 24.6126 10.6379C26.2477 10.6379 27.5386 9.37152 27.5386 7.76739C27.5386 6.24769 26.2477 4.89685 24.6126 4.89685C23.0636 4.89685 21.7727 6.16327 21.7727 7.76739Z" fill="black"/>
<path d="M14.9742 10.3846C14.9742 9.3715 14.1136 8.52722 12.9949 8.52722C11.9621 8.52722 11.1016 9.3715 11.1016 10.3846C11.1016 11.3978 11.9621 12.3265 13.0809 12.242C14.1136 12.242 14.9742 11.3978 14.9742 10.3846Z" fill="black"/>
<path d="M37.0052 12.7486C38.1239 12.7486 38.8985 11.9043 38.8985 10.8067C38.8124 9.70916 37.9518 8.94931 36.9191 9.03374C35.8864 9.11817 35.0258 9.96245 35.1119 10.9756C35.0258 11.9887 35.9725 12.7486 37.0052 12.7486Z" fill="black"/>
<path d="M3.70042 10.5535C2.83984 10.5535 2.15137 11.2289 2.15137 12.0732C2.15137 12.9174 2.83984 13.5929 3.78648 13.5929C4.64706 13.5929 5.33553 12.9174 5.33553 12.0732C5.24947 11.2289 4.56101 10.5535 3.70042 10.5535Z" fill="black"/>
<path d="M46.3855 10.5535C45.5249 10.5535 44.8364 11.2289 44.8364 12.0732C44.8364 12.9174 45.5249 13.5929 46.3855 13.5929C47.2461 13.5929 48.0206 12.9174 48.0206 12.0732C47.9345 11.2289 47.2461 10.6379 46.3855 10.5535Z" fill="black"/>
<path d="M26.8504 4.64356C27.1086 4.4747 27.1946 4.39028 27.2807 4.30585C27.8831 3.37714 28.3994 2.44844 28.9158 1.51973C29.0018 1.4353 28.9158 1.18202 28.8297 1.09759C28.7437 1.01317 28.3994 1.09759 28.3994 1.18202C27.797 2.11073 27.2807 3.03943 26.7643 4.05257C26.5922 4.13699 26.7643 4.39028 26.8504 4.64356Z" fill="black"/>
<path d="M25.043 1.94184C25.043 1.43527 25.043 0.928705 25.043 0.422139C25.043 0.253283 24.8708 0.0844278 24.6987 0C24.6127 0.168856 24.3545 0.253283 24.3545 0.422139C24.3545 1.43527 24.3545 2.44841 24.3545 3.46154C24.3545 3.63039 24.6127 3.71482 24.6987 3.88368C24.7848 3.71482 24.9569 3.54597 25.043 3.37711C25.043 2.95497 25.043 2.44841 25.043 1.94184Z" fill="black"/>
<path d="M22.8915 4.22136C22.8915 4.13693 22.8915 4.05251 22.8054 4.05251C22.289 3.1238 21.6866 2.11067 21.0842 1.18196C20.9982 1.09753 20.74 1.09753 20.6539 1.09753C20.5679 1.09753 20.4818 1.43525 20.5679 1.51967C20.74 1.85738 20.9121 2.1951 21.1703 2.53281C21.5145 3.1238 21.8588 3.7148 22.203 4.22136C22.289 4.30579 22.4612 4.39022 22.6333 4.39022C22.7193 4.39022 22.8915 4.22136 22.8915 4.22136Z" fill="black"/>
<path d="M28.1412 15.5347C28.1412 15.788 28.1412 16.0413 28.1412 16.2945C28.1412 22.4578 28.1412 28.621 28.1412 34.8687C28.1412 35.9662 27.4527 36.6416 26.334 36.5572C25.4734 36.4728 24.871 35.8818 24.871 35.0375C24.871 31.7448 24.871 28.5366 24.871 25.2439C24.871 25.075 24.871 24.9906 24.871 24.8218C24.7849 24.6529 24.6989 24.5685 24.6128 24.484C24.5267 24.5685 24.3546 24.7373 24.2686 24.8218C24.2686 24.9062 24.2686 24.9906 24.2686 25.075C24.2686 28.3677 24.2686 31.576 24.2686 34.8687C24.2686 35.9662 23.494 36.6416 22.4613 36.4728C21.6868 36.3884 21.1705 35.7974 21.1705 35.0375C21.1705 31.6604 21.1705 28.1989 21.1705 24.8218C21.1705 22.2889 21.1705 19.6717 21.0844 17.1388C20.9983 15.5347 20.482 13.9306 19.4493 12.5797C18.8469 11.7354 18.2445 10.8912 17.6421 10.0469C16.7815 8.69605 16.4372 7.17635 15.9209 5.74108C15.7488 5.31894 15.6627 4.8968 15.4906 4.39023C15.3185 3.79924 15.6627 3.20825 16.2651 3.03939C16.9536 2.87053 17.556 3.12382 17.7281 3.71481C18.0724 4.72795 18.4166 5.74108 18.6748 6.75421C19.1051 8.27391 19.8796 9.54033 21.2565 10.3846C21.945 10.8067 22.7195 11.06 23.494 11.06C24.6989 11.06 25.9897 11.06 27.1946 11.3133C29.0018 11.651 30.2927 12.6642 30.6369 14.5216C30.723 14.7749 30.723 15.0281 30.723 15.2814C30.723 17.8142 30.723 20.4315 30.723 22.9643C30.723 23.7242 30.2927 24.1463 29.5181 24.1463C28.7436 24.1463 28.3133 23.7242 28.3133 22.9643C28.3133 20.6848 28.3133 18.4052 28.3133 16.1257C28.3133 15.9568 28.3133 15.7036 28.2273 15.5347C28.3133 15.5347 28.2273 15.5347 28.1412 15.5347Z" fill="black"/>
<path d="M39.5008 16.2946C39.5008 16.4634 39.5008 16.6323 39.5008 16.8011C39.5008 21.2758 39.5008 25.7505 39.5008 30.2252C39.5008 30.7317 39.4147 31.1539 38.8984 31.3227C38.4681 31.4916 37.9517 31.576 37.6075 31.2383C37.3493 30.985 37.1772 30.6473 37.1772 30.3096C37.1772 28.4522 37.1772 26.5948 37.1772 24.7373C37.1772 24.2308 37.1772 23.7242 37.1772 23.2177C37.1772 23.0488 37.0051 22.8799 36.919 22.7955C36.833 22.9644 36.7469 23.1332 36.7469 23.3021C36.7469 25.6661 36.7469 28.03 36.7469 30.394C36.7469 30.9006 36.5748 31.2383 36.0584 31.4071C35.6281 31.576 35.1118 31.576 34.8536 31.2383C34.5954 30.985 34.5094 30.5629 34.5094 30.2252C34.5094 25.7505 34.5094 21.3602 34.5094 16.8856C34.5094 16.7167 34.5094 16.5479 34.5094 16.379C34.4233 16.379 34.4233 16.379 34.3373 16.379C34.3373 16.5479 34.2512 16.7167 34.2512 16.8856C34.2512 18.152 34.2512 19.334 34.2512 20.6004C34.2512 21.2758 33.993 21.5291 33.3906 21.5291C32.7882 21.5291 32.53 21.2758 32.53 20.6004C32.53 19.2495 32.53 17.9831 32.53 16.6323C32.53 14.6904 33.3906 13.6773 35.2839 13.3396C36.5748 13.0863 37.9517 13.0863 39.2426 13.424C40.7916 13.8462 41.5662 14.8593 41.5662 16.379C41.5662 17.8143 41.5662 19.1651 41.5662 20.6004C41.5662 21.1914 41.308 21.5291 40.7056 21.5291C40.1032 21.5291 39.845 21.1914 39.845 20.6004C39.845 19.334 39.845 18.152 39.845 16.8856C39.845 16.7167 39.845 16.5479 39.845 16.379C39.6729 16.379 39.5868 16.2946 39.5008 16.2946Z" fill="black"/>
<path d="M10.3271 15.8724C10.3271 16.0413 10.3271 16.2101 10.3271 16.379C10.3271 17.6454 10.3271 18.8274 10.3271 20.0938C10.3271 20.6848 10.0689 21.0225 9.46648 21.0225C8.95013 21.0225 8.6059 20.6848 8.6059 20.0938C8.6059 18.743 8.69196 17.3921 8.6059 16.0413C8.51984 14.1839 9.72466 13.0863 11.3598 12.833C12.7367 12.5797 14.1136 12.5797 15.4045 12.9174C16.8675 13.3396 17.642 14.3527 17.642 15.8724C17.642 17.2233 17.642 18.6585 17.642 20.0094C17.642 20.6004 17.2978 20.9381 16.7815 20.9381C16.179 20.9381 15.9209 20.6004 15.9209 20.0094C15.9209 18.743 15.9209 17.561 15.9209 16.2945C15.9209 16.1257 15.9209 15.9568 15.8348 15.788C15.7488 15.788 15.7488 15.788 15.6627 15.788C15.6627 15.9568 15.5766 16.1257 15.5766 16.2945C15.5766 20.7692 15.5766 25.2439 15.5766 29.7186C15.5766 30.3096 15.3185 30.7317 14.8021 30.9006C14.2858 31.0694 13.7694 30.9006 13.5112 30.4784C13.4252 30.2251 13.3391 29.9718 13.3391 29.7186C13.3391 27.5234 13.3391 25.3283 13.3391 23.2176C13.3391 23.0488 13.3391 22.9643 13.3391 22.7955C13.2531 22.6266 13.167 22.4578 13.0809 22.2889C12.9949 22.4578 12.8228 22.6266 12.8228 22.7955C12.8228 25.1595 12.8228 27.439 12.8228 29.803C12.8228 30.7317 12.1343 31.2383 11.2737 30.985C10.7574 30.8161 10.4992 30.4784 10.4992 29.8874C10.4992 27.5234 10.4992 25.2439 10.4992 22.8799C10.4992 20.6848 10.4992 18.4897 10.4992 16.2945C10.4992 16.2101 10.4992 16.0413 10.4131 15.9568C10.4131 15.8724 10.4131 15.8724 10.3271 15.8724Z" fill="black"/>
<path d="M24.957 45C23.0637 45 21.1704 45 19.2772 45C18.3305 45 17.8142 44.409 18.0723 43.4803C18.2445 42.8893 18.5026 42.2139 18.6747 41.6229C19.105 40.5254 19.4493 39.3434 19.8796 38.2458C20.0517 37.7392 20.3099 37.486 20.9123 37.486C23.6661 37.486 26.334 37.486 29.0878 37.486C29.6042 37.486 29.9484 37.7392 30.0345 38.1614C30.6369 39.8499 31.2393 41.6229 31.8417 43.3115C31.9278 43.5648 31.9278 43.9869 31.8417 44.2402C31.7556 44.6623 31.4114 44.9156 30.8951 44.9156C28.9157 45 26.9364 45 24.957 45Z" fill="black"/>
<path d="M48.451 16.6322C48.451 16.8011 48.451 16.97 48.451 17.1388C48.451 20.6848 48.451 24.2307 48.451 27.7767C48.451 28.2833 48.2789 28.621 47.8486 28.7898C47.1601 29.0431 46.6438 28.5366 46.6438 27.8611C46.6438 26.0882 46.6438 24.2307 46.6438 22.4578C46.6438 22.3733 46.6438 22.2045 46.6438 22.1201C46.6438 22.0356 46.5577 21.8668 46.4716 21.7823C46.3856 21.8668 46.2995 21.9512 46.2995 22.1201C46.2995 22.711 46.2995 23.302 46.2995 23.893C46.2995 25.1594 46.2995 26.5103 46.2995 27.7767C46.2995 28.4521 45.9553 28.8743 45.3529 28.8743C44.7505 28.8743 44.4062 28.5366 44.4062 27.8611C44.4062 24.3152 44.4062 20.7692 44.4062 17.2232C44.4062 17.0544 44.4062 16.8011 44.4062 16.6322C44.3202 16.6322 44.3202 16.6322 44.2341 16.6322C44.2341 16.8011 44.2341 16.97 44.2341 17.1388C44.2341 18.0675 44.2341 18.9962 44.2341 20.0094C44.2341 20.5159 43.9759 20.7692 43.5456 20.7692C43.1154 20.7692 42.8572 20.5159 42.8572 20.0094C42.8572 18.9118 42.8572 17.8142 42.8572 16.7167C42.8572 15.2814 43.4596 14.4371 44.9226 14.1838C46.0413 13.9306 47.2462 13.9306 48.3649 14.2683C49.5697 14.606 50.1722 15.4503 50.1722 16.7167C50.1722 17.8142 50.1722 18.9962 50.1722 20.0938C50.1722 20.6003 49.914 20.8536 49.4837 20.8536C48.9673 20.8536 48.7952 20.6003 48.7952 20.0938C48.7952 19.0806 48.7952 18.1519 48.7952 17.1388C48.7952 16.97 48.7952 16.8855 48.7952 16.7167C48.537 16.6322 48.451 16.6322 48.451 16.6322Z" fill="black"/>
<path d="M1.37694 16.6322C1.37694 16.8011 1.37694 16.9699 1.37694 17.0544C1.37694 18.0675 1.37694 18.9962 1.37694 20.0093C1.37694 20.5159 1.11876 20.6848 0.688468 20.6848C0.258176 20.6848 0 20.4315 0 20.0093C0 18.7429 0 17.5609 0 16.2945C0 15.2814 0.688468 14.4371 1.80723 14.1838C3.01205 13.8461 4.30293 13.8461 5.5938 14.1838C6.79862 14.5215 7.40103 15.3658 7.40103 16.5478C7.40103 17.6454 7.40103 18.7429 7.40103 19.9249C7.40103 20.5159 7.22892 20.7692 6.71256 20.7692C6.19621 20.7692 6.0241 20.5159 6.0241 19.9249C6.0241 18.9962 6.0241 18.0675 6.0241 17.1388C6.0241 16.9699 6.0241 16.8011 6.0241 16.7167C5.93804 16.7167 5.93804 16.7167 5.85198 16.7167C5.85198 16.8855 5.85198 17.0544 5.85198 17.2232C5.85198 20.7692 5.85198 24.3152 5.85198 27.9455C5.85198 28.5365 5.5938 28.8743 5.16351 28.9587C4.47504 29.1275 4.04475 28.7054 4.04475 27.9455C4.04475 26.0881 4.04475 24.3152 4.04475 22.4577C4.04475 22.2889 4.04475 22.2045 4.04475 22.0356C4.04475 21.9512 3.95869 21.9512 3.87263 21.8668C3.78657 21.9512 3.70052 22.0356 3.70052 22.0356C3.70052 22.12 3.70052 22.2889 3.70052 22.4577C3.70052 24.2307 3.70052 26.0881 3.70052 27.8611C3.70052 28.5365 3.35628 28.9587 2.75387 28.9587C2.15146 28.9587 1.80723 28.621 1.80723 27.8611C1.80723 24.3152 1.80723 20.7692 1.80723 17.1388C1.80723 16.9699 1.80723 16.8011 1.80723 16.6322C1.54905 16.6322 1.46299 16.6322 1.37694 16.6322Z" fill="black"/>
<path d="M21.7727 7.76739C21.7727 6.16327 23.0636 4.89685 24.6987 4.89685C26.2477 4.89685 27.6247 6.16327 27.6247 7.76739C27.6247 9.37152 26.3338 10.6379 24.6987 10.6379C23.0636 10.6379 21.7727 9.37152 21.7727 7.76739Z" fill="black"/>
<path d="M14.9742 10.3846C14.9742 11.3977 14.1136 12.242 13.0809 12.242C12.0482 12.242 11.1016 11.3977 11.1016 10.3846C11.1016 9.37147 11.9621 8.5272 12.9949 8.5272C14.1136 8.44277 14.9742 9.37147 14.9742 10.3846Z" fill="black"/>
<path d="M37.0052 12.7486C35.9725 12.7486 35.1119 11.9888 35.0259 10.9756C35.0259 9.96249 35.8004 9.03378 36.8331 9.03378C37.9519 8.94936 38.8125 9.79363 38.8125 10.8068C38.8985 11.8199 38.124 12.6642 37.0052 12.7486Z" fill="black"/>
<path d="M3.70054 10.5535C4.56113 10.5535 5.24959 11.2289 5.24959 12.0732C5.24959 12.9174 4.56113 13.5929 3.70054 13.5929C2.83996 13.5929 2.06543 12.9174 2.06543 12.0732C2.15149 11.2289 2.7539 10.6379 3.70054 10.5535Z" fill="black"/>
<path d="M46.3856 10.5535C47.2462 10.5535 47.9347 11.2289 47.9347 12.0732C47.9347 12.9174 47.2462 13.5929 46.2995 13.5929C45.439 13.5929 44.7505 12.9174 44.7505 12.0732C44.8365 11.2289 45.439 10.5535 46.3856 10.5535Z" fill="black"/>
<path d="M26.8504 4.64356C26.7643 4.39028 26.5922 4.13699 26.6782 4.05257C27.1946 3.12386 27.797 2.11073 28.3134 1.18202C28.3994 1.09759 28.6576 1.01317 28.7436 1.09759C28.8297 1.18202 28.9158 1.4353 28.8297 1.51973C28.3994 2.44844 27.8831 3.37714 27.2807 4.30585C27.1946 4.39028 27.1085 4.4747 26.8504 4.64356Z" fill="black"/>
<path d="M25.043 1.94184C25.043 2.44841 25.043 2.95497 25.043 3.37711C25.043 3.54597 24.8708 3.71482 24.6987 3.88368C24.6127 3.71482 24.3545 3.63039 24.3545 3.46154C24.3545 2.44841 24.3545 1.43527 24.3545 0.422139C24.3545 0.253283 24.6127 0.168856 24.6987 0C24.7848 0.168856 25.043 0.253283 25.043 0.422139C25.043 0.928705 25.043 1.43527 25.043 1.94184Z" fill="black"/>
<path d="M22.8915 4.22134C22.8054 4.30577 22.7193 4.47463 22.6333 4.47463C22.4612 4.47463 22.289 4.3902 22.203 4.30577C21.8588 3.71478 21.5145 3.12378 21.1703 2.61722C20.9982 2.2795 20.74 1.94179 20.5679 1.60408C20.4818 1.51965 20.5679 1.18194 20.6539 1.18194C20.826 1.09752 21.0842 1.18194 21.0842 1.26637C21.6866 2.19508 22.203 3.12378 22.8054 4.13692C22.8915 4.05249 22.8915 4.05249 22.8915 4.22134Z" fill="black"/>
</g>
<defs>
<clipPath id="clip0_77_884">
<rect width="50" height="45" fill="black"/>
</clipPath>
</defs>
</svg>
