<svg xmlns="http://www.w3.org/2000/svg" xmlns:xlink="http://www.w3.org/1999/xlink" width="500" zoomAndPan="magnify" viewBox="0 0 375 299.999988" height="400" preserveAspectRatio="xMidYMid meet" version="1.0"><defs><clipPath id="5a1d1a4d55"><path d="M 18 18.105469 L 357 18.105469 L 357 270.8125 L 18 270.8125 Z M 18 18.105469 " clip-rule="nonzero"/></clipPath><clipPath id="78408a6e11"><path d="M 355 18.695312 L 293.058594 52.210938 L 305.675781 59.652344 L 216.707031 215.421875 L 200.242188 97.648438 C 197.136719 82.261719 188.535156 72.394531 188.535156 72.394531 C 154.554688 39.214844 121.3125 90.503906 121.3125 90.503906 L 18.433594 270.113281 L 71.585938 270.113281 L 111.652344 195.347656 C 111.316406 188.878906 112.941406 182.222656 116.703125 176.304688 C 119.515625 171.886719 123.214844 168.402344 127.417969 165.929688 L 157.746094 112.84375 L 165.773438 170.917969 C 174.796875 180.382812 176.976562 194.921875 170.785156 207.097656 L 174.460938 233.746094 C 177.25 255.195312 197.769531 265.761719 197.769531 265.761719 C 231.648438 281.292969 252.082031 242.832031 252.082031 242.832031 L 341.980469 80.53125 L 356.5625 87.378906 Z M 355 18.695312 " clip-rule="nonzero"/></clipPath><clipPath id="239492a64b"><path d="M 126.464844 174 L 160 174 L 160 207.636719 L 126.464844 207.636719 Z M 126.464844 174 " clip-rule="nonzero"/></clipPath><clipPath id="4532a982b9"><path d="M 159.730469 190.71875 C 159.730469 199.847656 152.335938 207.222656 143.226562 207.222656 C 134.117188 207.222656 126.722656 199.828125 126.722656 190.71875 C 126.722656 181.609375 134.117188 174.214844 143.226562 174.214844 C 152.335938 174.214844 159.730469 181.609375 159.730469 190.71875 " clip-rule="nonzero"/></clipPath></defs><g clip-path="url(#5a1d1a4d55)"><g clip-path="url(#78408a6e11)"><path fill="#0086ff" d="M 7.867188 8.128906 L 366.980469 8.128906 L 366.980469 291.871094 L 7.867188 291.871094 Z M 7.867188 8.128906 " fill-opacity="1" fill-rule="nonzero"/></g></g><g clip-path="url(#239492a64b)"><g clip-path="url(#4532a982b9)"><path fill="#0086ff" d="M 7.867188 8.128906 L 366.980469 8.128906 L 366.980469 291.871094 L 7.867188 291.871094 Z M 7.867188 8.128906 " fill-opacity="1" fill-rule="nonzero"/></g></g></svg>