<svg xmlns="http://www.w3.org/2000/svg" xmlns:xlink="http://www.w3.org/1999/xlink" width="1200" zoomAndPan="magnify" viewBox="0 0 900 187.499995" height="250" preserveAspectRatio="xMidYMid meet" version="1.0"><defs><g/><clipPath id="9be89aad6a"><path d="M 19.898438 29.019531 L 129 29.019531 L 129 93 L 19.898438 93 Z M 19.898438 29.019531 " clip-rule="nonzero"/></clipPath><clipPath id="b339810972"><path d="M 135 29.019531 L 244.210938 29.019531 L 244.210938 93 L 135 93 Z M 135 29.019531 " clip-rule="nonzero"/></clipPath><clipPath id="f129525259"><path d="M 135 88 L 201 88 L 201 165.402344 L 135 165.402344 Z M 135 88 " clip-rule="nonzero"/></clipPath><clipPath id="70c55b9add"><path d="M 63 88 L 129 88 L 129 165.402344 L 63 165.402344 Z M 63 88 " clip-rule="nonzero"/></clipPath></defs><g clip-path="url(#9be89aad6a)"><path fill="#2f80ed" d="M 30.1875 45.480469 L 128.742188 92.949219 L 128.742188 81.496094 L 19.898438 29.0625 C 19.898438 36.046875 23.878906 42.417969 30.1875 45.480469 Z M 30.1875 45.480469 " fill-opacity="1" fill-rule="nonzero"/></g><path fill="#2f80ed" d="M 57.628906 78.003906 L 128.742188 112.242188 L 128.742188 100.789062 L 47.339844 61.589844 C 47.339844 68.632812 51.320312 75.003906 57.628906 78.003906 Z M 57.628906 78.003906 " fill-opacity="1" fill-rule="nonzero"/><g clip-path="url(#b339810972)"><path fill="#2f80ed" d="M 244.449219 29.0625 L 135.601562 81.496094 L 135.601562 92.949219 L 234.160156 45.480469 C 240.46875 42.417969 244.449219 36.046875 244.449219 29.0625 Z M 244.449219 29.0625 " fill-opacity="1" fill-rule="nonzero"/></g><path fill="#2f80ed" d="M 135.601562 100.851562 L 135.601562 112.304688 L 206.71875 78.003906 C 213.027344 74.941406 217.007812 68.570312 217.007812 61.589844 Z M 135.601562 100.851562 " fill-opacity="1" fill-rule="nonzero"/><g clip-path="url(#f129525259)"><path fill="#2f80ed" d="M 135.601562 133.742188 L 200.714844 165.105469 L 200.714844 121.675781 L 172.660156 121.675781 L 172.660156 131.601562 L 190.425781 131.601562 L 190.425781 148.6875 L 145.28125 126.945312 L 186.933594 106.914062 L 190.484375 105.199219 C 196.792969 102.136719 200.777344 95.765625 200.777344 88.785156 L 135.664062 120.144531 L 135.664062 133.742188 Z M 135.601562 133.742188 " fill-opacity="1" fill-rule="nonzero"/></g><g clip-path="url(#70c55b9add)"><path fill="#2f80ed" d="M 63.570312 88.785156 C 63.570312 95.765625 67.550781 102.136719 73.859375 105.199219 L 77.414062 106.914062 L 119.066406 126.945312 L 73.921875 148.6875 L 73.921875 112.242188 L 64.242188 107.589844 L 63.632812 107.589844 L 63.632812 165.105469 L 128.742188 133.742188 L 128.742188 120.144531 Z M 63.570312 88.785156 " fill-opacity="1" fill-rule="nonzero"/></g><g fill="#ffffff" fill-opacity="1"><g transform="translate(281.904967, 128.003482)"><g><path d="M 9.8125 -82.734375 L 47.390625 -82.734375 C 56.367188 -82.734375 64.304688 -81.019531 71.203125 -77.59375 C 78.097656 -74.164062 83.457031 -69.335938 87.28125 -63.109375 C 91.101562 -56.890625 93.015625 -49.640625 93.015625 -41.359375 C 93.015625 -33.085938 91.101562 -25.835938 87.28125 -19.609375 C 83.457031 -13.390625 78.097656 -8.566406 71.203125 -5.140625 C 64.304688 -1.710938 56.367188 0 47.390625 0 L 9.8125 0 Z M 46.453125 -15.71875 C 54.722656 -15.71875 61.316406 -18.019531 66.234375 -22.625 C 71.160156 -27.238281 73.625 -33.484375 73.625 -41.359375 C 73.625 -49.242188 71.160156 -55.488281 66.234375 -60.09375 C 61.316406 -64.707031 54.722656 -67.015625 46.453125 -67.015625 L 28.953125 -67.015625 L 28.953125 -15.71875 Z M 46.453125 -15.71875 "/></g></g></g><g fill="#ffffff" fill-opacity="1"><g transform="translate(369.826964, 128.003482)"><g><path d="M 70.796875 -31.5625 C 70.796875 -31.320312 70.675781 -29.664062 70.4375 -26.59375 L 22.34375 -26.59375 C 23.207031 -22.65625 25.253906 -19.539062 28.484375 -17.25 C 31.710938 -14.96875 35.726562 -13.828125 40.53125 -13.828125 C 43.84375 -13.828125 46.78125 -14.316406 49.34375 -15.296875 C 51.90625 -16.285156 54.289062 -17.84375 56.5 -19.96875 L 66.296875 -9.34375 C 60.316406 -2.476562 51.570312 0.953125 40.0625 0.953125 C 32.894531 0.953125 26.550781 -0.445312 21.03125 -3.25 C 15.519531 -6.050781 11.265625 -9.929688 8.265625 -14.890625 C 5.273438 -19.859375 3.78125 -25.492188 3.78125 -31.796875 C 3.78125 -38.015625 5.253906 -43.625 8.203125 -48.625 C 11.160156 -53.632812 15.21875 -57.535156 20.375 -60.328125 C 25.539062 -63.128906 31.316406 -64.53125 37.703125 -64.53125 C 43.921875 -64.53125 49.550781 -63.191406 54.59375 -60.515625 C 59.644531 -57.835938 63.609375 -53.992188 66.484375 -48.984375 C 69.359375 -43.984375 70.796875 -38.175781 70.796875 -31.5625 Z M 37.8125 -50.578125 C 33.644531 -50.578125 30.140625 -49.394531 27.296875 -47.03125 C 24.460938 -44.675781 22.726562 -41.445312 22.09375 -37.34375 L 53.421875 -37.34375 C 52.785156 -41.363281 51.050781 -44.570312 48.21875 -46.96875 C 45.382812 -49.375 41.914062 -50.578125 37.8125 -50.578125 Z M 37.8125 -50.578125 "/></g></g></g><g fill="#ffffff" fill-opacity="1"><g transform="translate(434.704638, 128.003482)"><g><path d="M 71.625 -63.578125 L 44.796875 0 L 25.765625 0 L -0.953125 -63.578125 L 18.078125 -63.578125 L 35.6875 -20.328125 L 53.890625 -63.578125 Z M 71.625 -63.578125 "/></g></g></g><g fill="#ffffff" fill-opacity="1"><g transform="translate(495.682492, 128.003482)"><g><path d="M 29.90625 0.953125 C 24.625 0.953125 19.460938 0.300781 14.421875 -1 C 9.378906 -2.300781 5.359375 -3.9375 2.359375 -5.90625 L 8.515625 -19.140625 C 11.347656 -17.328125 14.769531 -15.847656 18.78125 -14.703125 C 22.800781 -13.566406 26.742188 -13 30.609375 -13 C 38.410156 -13 42.3125 -14.929688 42.3125 -18.796875 C 42.3125 -20.609375 41.242188 -21.90625 39.109375 -22.6875 C 36.984375 -23.476562 33.71875 -24.148438 29.3125 -24.703125 C 24.113281 -25.492188 19.816406 -26.398438 16.421875 -27.421875 C 13.035156 -28.441406 10.101562 -30.25 7.625 -32.84375 C 5.144531 -35.445312 3.90625 -39.15625 3.90625 -43.96875 C 3.90625 -47.988281 5.066406 -51.550781 7.390625 -54.65625 C 9.710938 -57.769531 13.097656 -60.191406 17.546875 -61.921875 C 22.003906 -63.660156 27.265625 -64.53125 33.328125 -64.53125 C 37.816406 -64.53125 42.285156 -64.035156 46.734375 -63.046875 C 51.191406 -62.066406 54.878906 -60.707031 57.796875 -58.96875 L 51.640625 -45.859375 C 46.046875 -49.003906 39.941406 -50.578125 33.328125 -50.578125 C 29.390625 -50.578125 26.4375 -50.023438 24.46875 -48.921875 C 22.5 -47.828125 21.515625 -46.410156 21.515625 -44.671875 C 21.515625 -42.703125 22.578125 -41.320312 24.703125 -40.53125 C 26.828125 -39.75 30.210938 -39.003906 34.859375 -38.296875 C 40.066406 -37.429688 44.320312 -36.503906 47.625 -35.515625 C 50.9375 -34.523438 53.8125 -32.726562 56.25 -30.125 C 58.695312 -27.53125 59.921875 -23.910156 59.921875 -19.265625 C 59.921875 -15.328125 58.738281 -11.820312 56.375 -8.75 C 54.007812 -5.675781 50.5625 -3.289062 46.03125 -1.59375 C 41.5 0.101562 36.125 0.953125 29.90625 0.953125 Z M 29.90625 0.953125 "/></g></g></g><g fill="#ffffff" fill-opacity="1"><g transform="translate(548.742566, 128.003482)"><g><path d="M 65.71875 -42.671875 L 83.203125 -42.671875 L 83.203125 -9.09375 C 78.710938 -5.707031 73.507812 -3.109375 67.59375 -1.296875 C 61.6875 0.515625 55.738281 1.421875 49.75 1.421875 C 41.164062 1.421875 33.445312 -0.410156 26.59375 -4.078125 C 19.738281 -7.742188 14.359375 -12.828125 10.453125 -19.328125 C 6.554688 -25.828125 4.609375 -33.171875 4.609375 -41.359375 C 4.609375 -49.554688 6.554688 -56.90625 10.453125 -63.40625 C 14.359375 -69.90625 19.773438 -74.988281 26.703125 -78.65625 C 33.640625 -82.320312 41.441406 -84.15625 50.109375 -84.15625 C 57.359375 -84.15625 63.9375 -82.929688 69.84375 -80.484375 C 75.757812 -78.046875 80.722656 -74.5 84.734375 -69.84375 L 72.453125 -58.5 C 66.535156 -64.726562 59.40625 -67.84375 51.0625 -67.84375 C 45.78125 -67.84375 41.085938 -66.738281 36.984375 -64.53125 C 32.890625 -62.320312 29.695312 -59.207031 27.40625 -55.1875 C 25.125 -51.175781 23.984375 -46.566406 23.984375 -41.359375 C 23.984375 -36.242188 25.125 -31.675781 27.40625 -27.65625 C 29.695312 -23.632812 32.867188 -20.5 36.921875 -18.25 C 40.984375 -16.007812 45.617188 -14.890625 50.828125 -14.890625 C 56.335938 -14.890625 61.300781 -16.070312 65.71875 -18.4375 Z M 65.71875 -42.671875 "/></g></g></g><g fill="#ffffff" fill-opacity="1"><g transform="translate(630.164871, 128.003482)"><g><path d="M 8.515625 -63.578125 L 26.953125 -63.578125 L 26.953125 0 L 8.515625 0 Z M 17.734375 -72.453125 C 14.347656 -72.453125 11.585938 -73.4375 9.453125 -75.40625 C 7.328125 -77.375 6.265625 -79.816406 6.265625 -82.734375 C 6.265625 -85.648438 7.328125 -88.09375 9.453125 -90.0625 C 11.585938 -92.03125 14.347656 -93.015625 17.734375 -93.015625 C 21.117188 -93.015625 23.875 -92.066406 26 -90.171875 C 28.132812 -88.285156 29.203125 -85.921875 29.203125 -83.078125 C 29.203125 -80.003906 28.132812 -77.460938 26 -75.453125 C 23.875 -73.453125 21.117188 -72.453125 17.734375 -72.453125 Z M 17.734375 -72.453125 "/></g></g></g><g fill="#ffffff" fill-opacity="1"><g transform="translate(656.044444, 128.003482)"><g><path d="M 34.15625 -64.53125 C 44 -64.53125 51.5625 -62.1875 56.84375 -57.5 C 62.125 -52.8125 64.765625 -45.738281 64.765625 -36.28125 L 64.765625 0 L 47.515625 0 L 47.515625 -7.921875 C 44.046875 -2.003906 37.582031 0.953125 28.125 0.953125 C 23.238281 0.953125 19.003906 0.125 15.421875 -1.53125 C 11.835938 -3.1875 9.097656 -5.472656 7.203125 -8.390625 C 5.316406 -11.304688 4.375 -14.613281 4.375 -18.3125 C 4.375 -24.226562 6.597656 -28.878906 11.046875 -32.265625 C 15.503906 -35.648438 22.378906 -37.34375 31.671875 -37.34375 L 46.328125 -37.34375 C 46.328125 -41.363281 45.101562 -44.457031 42.65625 -46.625 C 40.21875 -48.789062 36.554688 -49.875 31.671875 -49.875 C 28.285156 -49.875 24.957031 -49.34375 21.6875 -48.28125 C 18.414062 -47.21875 15.640625 -45.78125 13.359375 -43.96875 L 6.734375 -56.84375 C 10.203125 -59.289062 14.359375 -61.179688 19.203125 -62.515625 C 24.046875 -63.859375 29.03125 -64.53125 34.15625 -64.53125 Z M 32.734375 -11.46875 C 35.890625 -11.46875 38.6875 -12.195312 41.125 -13.65625 C 43.570312 -15.113281 45.304688 -17.257812 46.328125 -20.09375 L 46.328125 -26.59375 L 33.6875 -26.59375 C 26.125 -26.59375 22.34375 -24.109375 22.34375 -19.140625 C 22.34375 -16.773438 23.265625 -14.90625 25.109375 -13.53125 C 26.960938 -12.15625 29.503906 -11.46875 32.734375 -11.46875 Z M 32.734375 -11.46875 "/></g></g></g><g fill="#ffffff" fill-opacity="1"><g transform="translate(719.267656, 128.003482)"><g><path d="M 47.15625 -64.53125 C 55.03125 -64.53125 61.390625 -62.164062 66.234375 -57.4375 C 71.085938 -52.707031 73.515625 -45.695312 73.515625 -36.40625 L 73.515625 0 L 55.078125 0 L 55.078125 -33.5625 C 55.078125 -38.601562 53.972656 -42.363281 51.765625 -44.84375 C 49.554688 -47.332031 46.363281 -48.578125 42.1875 -48.578125 C 37.539062 -48.578125 33.835938 -47.140625 31.078125 -44.265625 C 28.328125 -41.390625 26.953125 -37.113281 26.953125 -31.4375 L 26.953125 0 L 8.515625 0 L 8.515625 -63.578125 L 26.125 -63.578125 L 26.125 -56.140625 C 28.5625 -58.816406 31.59375 -60.882812 35.21875 -62.34375 C 38.84375 -63.800781 42.820312 -64.53125 47.15625 -64.53125 Z M 47.15625 -64.53125 "/></g></g></g><g fill="#ffffff" fill-opacity="1"><g transform="translate(791.235899, 128.003482)"><g><path d="M 49.515625 -3.078125 C 47.703125 -1.734375 45.476562 -0.722656 42.84375 -0.046875 C 40.207031 0.617188 37.429688 0.953125 34.515625 0.953125 C 26.953125 0.953125 21.097656 -0.976562 16.953125 -4.84375 C 12.816406 -8.707031 10.75 -14.378906 10.75 -21.859375 L 10.75 -47.984375 L 0.953125 -47.984375 L 0.953125 -62.171875 L 10.75 -62.171875 L 10.75 -77.65625 L 29.1875 -77.65625 L 29.1875 -62.171875 L 45.03125 -62.171875 L 45.03125 -47.984375 L 29.1875 -47.984375 L 29.1875 -22.09375 C 29.1875 -19.414062 29.875 -17.347656 31.25 -15.890625 C 32.632812 -14.429688 34.585938 -13.703125 37.109375 -13.703125 C 40.023438 -13.703125 42.507812 -14.492188 44.5625 -16.078125 Z M 49.515625 -3.078125 "/></g></g></g><g fill="#ffffff" fill-opacity="1"><g transform="translate(289.485263, 164.308736)"><g><path d="M 9.671875 -17.546875 C 11.222656 -17.546875 12.570312 -17.285156 13.71875 -16.765625 C 14.863281 -16.242188 15.742188 -15.503906 16.359375 -14.546875 C 16.984375 -13.597656 17.296875 -12.472656 17.296875 -11.171875 C 17.296875 -9.890625 16.984375 -8.765625 16.359375 -7.796875 C 15.742188 -6.835938 14.863281 -6.101562 13.71875 -5.59375 C 12.570312 -5.09375 11.222656 -4.84375 9.671875 -4.84375 L 6.140625 -4.84375 L 6.140625 0 L 2.078125 0 L 2.078125 -17.546875 Z M 9.453125 -8.140625 C 10.671875 -8.140625 11.597656 -8.398438 12.234375 -8.921875 C 12.867188 -9.453125 13.1875 -10.203125 13.1875 -11.171875 C 13.1875 -12.160156 12.867188 -12.914062 12.234375 -13.4375 C 11.597656 -13.96875 10.671875 -14.234375 9.453125 -14.234375 L 6.140625 -14.234375 L 6.140625 -8.140625 Z M 9.453125 -8.140625 "/></g></g></g><g fill="#ffffff" fill-opacity="1"><g transform="translate(307.834272, 164.308736)"><g><path d="M 1.796875 -13.484375 L 5.71875 -13.484375 L 5.71875 0 L 1.796875 0 Z M 3.765625 -15.359375 C 3.046875 -15.359375 2.457031 -15.566406 2 -15.984375 C 1.550781 -16.398438 1.328125 -16.921875 1.328125 -17.546875 C 1.328125 -18.160156 1.550781 -18.675781 2 -19.09375 C 2.457031 -19.507812 3.046875 -19.71875 3.765625 -19.71875 C 4.484375 -19.71875 5.066406 -19.515625 5.515625 -19.109375 C 5.960938 -18.710938 6.1875 -18.21875 6.1875 -17.625 C 6.1875 -16.96875 5.960938 -16.425781 5.515625 -16 C 5.066406 -15.570312 4.484375 -15.359375 3.765625 -15.359375 Z M 3.765625 -15.359375 "/></g></g></g><g fill="#ffffff" fill-opacity="1"><g transform="translate(315.37943, 164.308736)"><g><path d="M 8.21875 0.203125 C 6.800781 0.203125 5.523438 -0.09375 4.390625 -0.6875 C 3.265625 -1.28125 2.382812 -2.101562 1.75 -3.15625 C 1.113281 -4.207031 0.796875 -5.398438 0.796875 -6.734375 C 0.796875 -8.078125 1.113281 -9.273438 1.75 -10.328125 C 2.382812 -11.378906 3.265625 -12.203125 4.390625 -12.796875 C 5.523438 -13.390625 6.800781 -13.6875 8.21875 -13.6875 C 9.632812 -13.6875 10.898438 -13.390625 12.015625 -12.796875 C 13.140625 -12.203125 14.019531 -11.378906 14.65625 -10.328125 C 15.289062 -9.273438 15.609375 -8.078125 15.609375 -6.734375 C 15.609375 -5.398438 15.289062 -4.207031 14.65625 -3.15625 C 14.019531 -2.101562 13.140625 -1.28125 12.015625 -0.6875 C 10.898438 -0.09375 9.632812 0.203125 8.21875 0.203125 Z M 8.21875 -3 C 9.21875 -3 10.039062 -3.335938 10.6875 -4.015625 C 11.332031 -4.691406 11.65625 -5.597656 11.65625 -6.734375 C 11.65625 -7.878906 11.332031 -8.785156 10.6875 -9.453125 C 10.039062 -10.128906 9.21875 -10.46875 8.21875 -10.46875 C 7.21875 -10.46875 6.390625 -10.128906 5.734375 -9.453125 C 5.085938 -8.785156 4.765625 -7.878906 4.765625 -6.734375 C 4.765625 -5.597656 5.085938 -4.691406 5.734375 -4.015625 C 6.390625 -3.335938 7.21875 -3 8.21875 -3 Z M 8.21875 -3 "/></g></g></g><g fill="#ffffff" fill-opacity="1"><g transform="translate(331.798293, 164.308736)"><g><path d="M 10 -13.6875 C 11.664062 -13.6875 13.015625 -13.179688 14.046875 -12.171875 C 15.078125 -11.171875 15.59375 -9.6875 15.59375 -7.71875 L 15.59375 0 L 11.671875 0 L 11.671875 -7.125 C 11.671875 -8.1875 11.4375 -8.976562 10.96875 -9.5 C 10.507812 -10.03125 9.835938 -10.296875 8.953125 -10.296875 C 7.960938 -10.296875 7.175781 -9.988281 6.59375 -9.375 C 6.007812 -8.769531 5.71875 -7.867188 5.71875 -6.671875 L 5.71875 0 L 1.796875 0 L 1.796875 -13.484375 L 5.53125 -13.484375 L 5.53125 -11.90625 C 6.050781 -12.46875 6.695312 -12.90625 7.46875 -13.21875 C 8.238281 -13.53125 9.082031 -13.6875 10 -13.6875 Z M 10 -13.6875 "/></g></g></g><g fill="#ffffff" fill-opacity="1"><g transform="translate(349.119559, 164.308736)"><g><path d="M 15.015625 -6.6875 C 15.015625 -6.632812 14.988281 -6.285156 14.9375 -5.640625 L 4.734375 -5.640625 C 4.921875 -4.804688 5.351562 -4.144531 6.03125 -3.65625 C 6.71875 -3.175781 7.570312 -2.9375 8.59375 -2.9375 C 9.300781 -2.9375 9.925781 -3.039062 10.46875 -3.25 C 11.007812 -3.457031 11.515625 -3.785156 11.984375 -4.234375 L 14.0625 -1.984375 C 12.789062 -0.523438 10.9375 0.203125 8.5 0.203125 C 6.976562 0.203125 5.628906 -0.09375 4.453125 -0.6875 C 3.285156 -1.28125 2.382812 -2.101562 1.75 -3.15625 C 1.113281 -4.207031 0.796875 -5.398438 0.796875 -6.734375 C 0.796875 -8.054688 1.109375 -9.25 1.734375 -10.3125 C 2.367188 -11.375 3.234375 -12.203125 4.328125 -12.796875 C 5.421875 -13.390625 6.644531 -13.6875 8 -13.6875 C 9.3125 -13.6875 10.503906 -13.398438 11.578125 -12.828125 C 12.648438 -12.265625 13.488281 -11.453125 14.09375 -10.390625 C 14.707031 -9.328125 15.015625 -8.09375 15.015625 -6.6875 Z M 8.015625 -10.734375 C 7.128906 -10.734375 6.382812 -10.476562 5.78125 -9.96875 C 5.1875 -9.46875 4.820312 -8.785156 4.6875 -7.921875 L 11.328125 -7.921875 C 11.191406 -8.773438 10.820312 -9.457031 10.21875 -9.96875 C 9.625 -10.476562 8.890625 -10.734375 8.015625 -10.734375 Z M 8.015625 -10.734375 "/></g></g></g><g fill="#ffffff" fill-opacity="1"><g transform="translate(364.936813, 164.308736)"><g><path d="M 15.015625 -6.6875 C 15.015625 -6.632812 14.988281 -6.285156 14.9375 -5.640625 L 4.734375 -5.640625 C 4.921875 -4.804688 5.351562 -4.144531 6.03125 -3.65625 C 6.71875 -3.175781 7.570312 -2.9375 8.59375 -2.9375 C 9.300781 -2.9375 9.925781 -3.039062 10.46875 -3.25 C 11.007812 -3.457031 11.515625 -3.785156 11.984375 -4.234375 L 14.0625 -1.984375 C 12.789062 -0.523438 10.9375 0.203125 8.5 0.203125 C 6.976562 0.203125 5.628906 -0.09375 4.453125 -0.6875 C 3.285156 -1.28125 2.382812 -2.101562 1.75 -3.15625 C 1.113281 -4.207031 0.796875 -5.398438 0.796875 -6.734375 C 0.796875 -8.054688 1.109375 -9.25 1.734375 -10.3125 C 2.367188 -11.375 3.234375 -12.203125 4.328125 -12.796875 C 5.421875 -13.390625 6.644531 -13.6875 8 -13.6875 C 9.3125 -13.6875 10.503906 -13.398438 11.578125 -12.828125 C 12.648438 -12.265625 13.488281 -11.453125 14.09375 -10.390625 C 14.707031 -9.328125 15.015625 -8.09375 15.015625 -6.6875 Z M 8.015625 -10.734375 C 7.128906 -10.734375 6.382812 -10.476562 5.78125 -9.96875 C 5.1875 -9.46875 4.820312 -8.785156 4.6875 -7.921875 L 11.328125 -7.921875 C 11.191406 -8.773438 10.820312 -9.457031 10.21875 -9.96875 C 9.625 -10.476562 8.890625 -10.734375 8.015625 -10.734375 Z M 8.015625 -10.734375 "/></g></g></g><g fill="#ffffff" fill-opacity="1"><g transform="translate(380.754067, 164.308736)"><g><path d="M 5.53125 -11.703125 C 6 -12.359375 6.628906 -12.851562 7.421875 -13.1875 C 8.222656 -13.519531 9.140625 -13.6875 10.171875 -13.6875 L 10.171875 -10.078125 C 9.742188 -10.109375 9.453125 -10.125 9.296875 -10.125 C 8.179688 -10.125 7.304688 -9.8125 6.671875 -9.1875 C 6.035156 -8.5625 5.71875 -7.617188 5.71875 -6.359375 L 5.71875 0 L 1.796875 0 L 1.796875 -13.484375 L 5.53125 -13.484375 Z M 5.53125 -11.703125 "/></g></g></g><g fill="#ffffff" fill-opacity="1"><g transform="translate(391.557932, 164.308736)"><g><path d="M 1.796875 -13.484375 L 5.71875 -13.484375 L 5.71875 0 L 1.796875 0 Z M 3.765625 -15.359375 C 3.046875 -15.359375 2.457031 -15.566406 2 -15.984375 C 1.550781 -16.398438 1.328125 -16.921875 1.328125 -17.546875 C 1.328125 -18.160156 1.550781 -18.675781 2 -19.09375 C 2.457031 -19.507812 3.046875 -19.71875 3.765625 -19.71875 C 4.484375 -19.71875 5.066406 -19.515625 5.515625 -19.109375 C 5.960938 -18.710938 6.1875 -18.21875 6.1875 -17.625 C 6.1875 -16.96875 5.960938 -16.425781 5.515625 -16 C 5.066406 -15.570312 4.484375 -15.359375 3.765625 -15.359375 Z M 3.765625 -15.359375 "/></g></g></g><g fill="#ffffff" fill-opacity="1"><g transform="translate(399.103089, 164.308736)"><g><path d="M 10 -13.6875 C 11.664062 -13.6875 13.015625 -13.179688 14.046875 -12.171875 C 15.078125 -11.171875 15.59375 -9.6875 15.59375 -7.71875 L 15.59375 0 L 11.671875 0 L 11.671875 -7.125 C 11.671875 -8.1875 11.4375 -8.976562 10.96875 -9.5 C 10.507812 -10.03125 9.835938 -10.296875 8.953125 -10.296875 C 7.960938 -10.296875 7.175781 -9.988281 6.59375 -9.375 C 6.007812 -8.769531 5.71875 -7.867188 5.71875 -6.671875 L 5.71875 0 L 1.796875 0 L 1.796875 -13.484375 L 5.53125 -13.484375 L 5.53125 -11.90625 C 6.050781 -12.46875 6.695312 -12.90625 7.46875 -13.21875 C 8.238281 -13.53125 9.082031 -13.6875 10 -13.6875 Z M 10 -13.6875 "/></g></g></g><g fill="#ffffff" fill-opacity="1"><g transform="translate(416.424355, 164.308736)"><g><path d="M 15.71875 -13.484375 L 15.71875 -2.25 C 15.71875 0.21875 15.070312 2.050781 13.78125 3.25 C 12.5 4.457031 10.617188 5.0625 8.140625 5.0625 C 6.835938 5.0625 5.601562 4.898438 4.4375 4.578125 C 3.269531 4.265625 2.300781 3.804688 1.53125 3.203125 L 3.078125 0.40625 C 3.648438 0.875 4.367188 1.242188 5.234375 1.515625 C 6.109375 1.796875 6.976562 1.9375 7.84375 1.9375 C 9.195312 1.9375 10.191406 1.628906 10.828125 1.015625 C 11.472656 0.398438 11.796875 -0.519531 11.796875 -1.75 L 11.796875 -2.328125 C 10.785156 -1.210938 9.367188 -0.65625 7.546875 -0.65625 C 6.304688 -0.65625 5.171875 -0.925781 4.140625 -1.46875 C 3.117188 -2.007812 2.304688 -2.769531 1.703125 -3.75 C 1.097656 -4.738281 0.796875 -5.878906 0.796875 -7.171875 C 0.796875 -8.453125 1.097656 -9.585938 1.703125 -10.578125 C 2.304688 -11.566406 3.117188 -12.332031 4.140625 -12.875 C 5.171875 -13.414062 6.304688 -13.6875 7.546875 -13.6875 C 9.492188 -13.6875 10.976562 -13.039062 12 -11.75 L 12 -13.484375 Z M 8.328125 -3.859375 C 9.359375 -3.859375 10.203125 -4.160156 10.859375 -4.765625 C 11.523438 -5.378906 11.859375 -6.179688 11.859375 -7.171875 C 11.859375 -8.148438 11.523438 -8.941406 10.859375 -9.546875 C 10.203125 -10.160156 9.359375 -10.46875 8.328125 -10.46875 C 7.285156 -10.46875 6.429688 -10.160156 5.765625 -9.546875 C 5.097656 -8.941406 4.765625 -8.148438 4.765625 -7.171875 C 4.765625 -6.179688 5.097656 -5.378906 5.765625 -4.765625 C 6.429688 -4.160156 7.285156 -3.859375 8.328125 -3.859375 Z M 8.328125 -3.859375 "/></g></g></g><g fill="#ffffff" fill-opacity="1"><g transform="translate(433.971222, 164.308736)"><g/></g></g><g fill="#ffffff" fill-opacity="1"><g transform="translate(441.065165, 164.308736)"><g><path d="M 10.5 -0.65625 C 10.113281 -0.363281 9.640625 -0.144531 9.078125 0 C 8.523438 0.132812 7.9375 0.203125 7.3125 0.203125 C 5.707031 0.203125 4.46875 -0.203125 3.59375 -1.015625 C 2.71875 -1.835938 2.28125 -3.046875 2.28125 -4.640625 L 2.28125 -10.171875 L 0.203125 -10.171875 L 0.203125 -13.1875 L 2.28125 -13.1875 L 2.28125 -16.46875 L 6.1875 -16.46875 L 6.1875 -13.1875 L 9.546875 -13.1875 L 9.546875 -10.171875 L 6.1875 -10.171875 L 6.1875 -4.6875 C 6.1875 -4.113281 6.332031 -3.671875 6.625 -3.359375 C 6.914062 -3.054688 7.332031 -2.90625 7.875 -2.90625 C 8.488281 -2.90625 9.015625 -3.070312 9.453125 -3.40625 Z M 10.5 -0.65625 "/></g></g></g><g fill="#ffffff" fill-opacity="1"><g transform="translate(451.969289, 164.308736)"><g><path d="M 10 -13.6875 C 11.664062 -13.6875 13.015625 -13.179688 14.046875 -12.171875 C 15.078125 -11.171875 15.59375 -9.6875 15.59375 -7.71875 L 15.59375 0 L 11.671875 0 L 11.671875 -7.125 C 11.671875 -8.1875 11.4375 -8.976562 10.96875 -9.5 C 10.507812 -10.03125 9.835938 -10.296875 8.953125 -10.296875 C 7.960938 -10.296875 7.175781 -9.988281 6.59375 -9.375 C 6.007812 -8.769531 5.71875 -7.867188 5.71875 -6.671875 L 5.71875 0 L 1.796875 0 L 1.796875 -18.59375 L 5.71875 -18.59375 L 5.71875 -12.078125 C 6.226562 -12.597656 6.851562 -12.992188 7.59375 -13.265625 C 8.332031 -13.546875 9.132812 -13.6875 10 -13.6875 Z M 10 -13.6875 "/></g></g></g><g fill="#ffffff" fill-opacity="1"><g transform="translate(469.290555, 164.308736)"><g><path d="M 15.015625 -6.6875 C 15.015625 -6.632812 14.988281 -6.285156 14.9375 -5.640625 L 4.734375 -5.640625 C 4.921875 -4.804688 5.351562 -4.144531 6.03125 -3.65625 C 6.71875 -3.175781 7.570312 -2.9375 8.59375 -2.9375 C 9.300781 -2.9375 9.925781 -3.039062 10.46875 -3.25 C 11.007812 -3.457031 11.515625 -3.785156 11.984375 -4.234375 L 14.0625 -1.984375 C 12.789062 -0.523438 10.9375 0.203125 8.5 0.203125 C 6.976562 0.203125 5.628906 -0.09375 4.453125 -0.6875 C 3.285156 -1.28125 2.382812 -2.101562 1.75 -3.15625 C 1.113281 -4.207031 0.796875 -5.398438 0.796875 -6.734375 C 0.796875 -8.054688 1.109375 -9.25 1.734375 -10.3125 C 2.367188 -11.375 3.234375 -12.203125 4.328125 -12.796875 C 5.421875 -13.390625 6.644531 -13.6875 8 -13.6875 C 9.3125 -13.6875 10.503906 -13.398438 11.578125 -12.828125 C 12.648438 -12.265625 13.488281 -11.453125 14.09375 -10.390625 C 14.707031 -9.328125 15.015625 -8.09375 15.015625 -6.6875 Z M 8.015625 -10.734375 C 7.128906 -10.734375 6.382812 -10.476562 5.78125 -9.96875 C 5.1875 -9.46875 4.820312 -8.785156 4.6875 -7.921875 L 11.328125 -7.921875 C 11.191406 -8.773438 10.820312 -9.457031 10.21875 -9.96875 C 9.625 -10.476562 8.890625 -10.734375 8.015625 -10.734375 Z M 8.015625 -10.734375 "/></g></g></g><g fill="#ffffff" fill-opacity="1"><g transform="translate(485.107809, 164.308736)"><g/></g></g><g fill="#ffffff" fill-opacity="1"><g transform="translate(492.201752, 164.308736)"><g><path d="M 18.171875 -17.546875 L 18.171875 0 L 14.84375 0 L 6.09375 -10.65625 L 6.09375 0 L 2.078125 0 L 2.078125 -17.546875 L 5.4375 -17.546875 L 14.15625 -6.890625 L 14.15625 -17.546875 Z M 18.171875 -17.546875 "/></g></g></g><g fill="#ffffff" fill-opacity="1"><g transform="translate(512.455851, 164.308736)"><g><path d="M 15.015625 -6.6875 C 15.015625 -6.632812 14.988281 -6.285156 14.9375 -5.640625 L 4.734375 -5.640625 C 4.921875 -4.804688 5.351562 -4.144531 6.03125 -3.65625 C 6.71875 -3.175781 7.570312 -2.9375 8.59375 -2.9375 C 9.300781 -2.9375 9.925781 -3.039062 10.46875 -3.25 C 11.007812 -3.457031 11.515625 -3.785156 11.984375 -4.234375 L 14.0625 -1.984375 C 12.789062 -0.523438 10.9375 0.203125 8.5 0.203125 C 6.976562 0.203125 5.628906 -0.09375 4.453125 -0.6875 C 3.285156 -1.28125 2.382812 -2.101562 1.75 -3.15625 C 1.113281 -4.207031 0.796875 -5.398438 0.796875 -6.734375 C 0.796875 -8.054688 1.109375 -9.25 1.734375 -10.3125 C 2.367188 -11.375 3.234375 -12.203125 4.328125 -12.796875 C 5.421875 -13.390625 6.644531 -13.6875 8 -13.6875 C 9.3125 -13.6875 10.503906 -13.398438 11.578125 -12.828125 C 12.648438 -12.265625 13.488281 -11.453125 14.09375 -10.390625 C 14.707031 -9.328125 15.015625 -8.09375 15.015625 -6.6875 Z M 8.015625 -10.734375 C 7.128906 -10.734375 6.382812 -10.476562 5.78125 -9.96875 C 5.1875 -9.46875 4.820312 -8.785156 4.6875 -7.921875 L 11.328125 -7.921875 C 11.191406 -8.773438 10.820312 -9.457031 10.21875 -9.96875 C 9.625 -10.476562 8.890625 -10.734375 8.015625 -10.734375 Z M 8.015625 -10.734375 "/></g></g></g><g fill="#ffffff" fill-opacity="1"><g transform="translate(528.273104, 164.308736)"><g><path d="M 10.375 0 L 7.421875 -4.140625 L 4.359375 0 L 0.09375 0 L 5.28125 -6.796875 L 0.28125 -13.484375 L 4.65625 -13.484375 L 7.515625 -9.546875 L 10.453125 -13.484375 L 14.609375 -13.484375 L 9.59375 -6.890625 L 14.8125 0 Z M 10.375 0 "/></g></g></g><g fill="#ffffff" fill-opacity="1"><g transform="translate(543.187928, 164.308736)"><g><path d="M 10.5 -0.65625 C 10.113281 -0.363281 9.640625 -0.144531 9.078125 0 C 8.523438 0.132812 7.9375 0.203125 7.3125 0.203125 C 5.707031 0.203125 4.46875 -0.203125 3.59375 -1.015625 C 2.71875 -1.835938 2.28125 -3.046875 2.28125 -4.640625 L 2.28125 -10.171875 L 0.203125 -10.171875 L 0.203125 -13.1875 L 2.28125 -13.1875 L 2.28125 -16.46875 L 6.1875 -16.46875 L 6.1875 -13.1875 L 9.546875 -13.1875 L 9.546875 -10.171875 L 6.1875 -10.171875 L 6.1875 -4.6875 C 6.1875 -4.113281 6.332031 -3.671875 6.625 -3.359375 C 6.914062 -3.054688 7.332031 -2.90625 7.875 -2.90625 C 8.488281 -2.90625 9.015625 -3.070312 9.453125 -3.40625 Z M 10.5 -0.65625 "/></g></g></g><g fill="#ffffff" fill-opacity="1"><g transform="translate(554.092053, 164.308736)"><g/></g></g><g fill="#ffffff" fill-opacity="1"><g transform="translate(561.185996, 164.308736)"><g><path d="M 13.9375 -9.046875 L 17.640625 -9.046875 L 17.640625 -1.9375 C 16.691406 -1.21875 15.585938 -0.664062 14.328125 -0.28125 C 13.078125 0.101562 11.816406 0.296875 10.546875 0.296875 C 8.722656 0.296875 7.082031 -0.0859375 5.625 -0.859375 C 4.175781 -1.640625 3.039062 -2.71875 2.21875 -4.09375 C 1.394531 -5.476562 0.984375 -7.035156 0.984375 -8.765625 C 0.984375 -10.503906 1.394531 -12.0625 2.21875 -13.4375 C 3.039062 -14.820312 4.1875 -15.898438 5.65625 -16.671875 C 7.132812 -17.453125 8.789062 -17.84375 10.625 -17.84375 C 12.164062 -17.84375 13.5625 -17.582031 14.8125 -17.0625 C 16.0625 -16.550781 17.113281 -15.800781 17.96875 -14.8125 L 15.359375 -12.40625 C 14.109375 -13.726562 12.597656 -14.390625 10.828125 -14.390625 C 9.703125 -14.390625 8.707031 -14.15625 7.84375 -13.6875 C 6.976562 -13.21875 6.300781 -12.554688 5.8125 -11.703125 C 5.332031 -10.847656 5.09375 -9.867188 5.09375 -8.765625 C 5.09375 -7.679688 5.332031 -6.710938 5.8125 -5.859375 C 6.300781 -5.015625 6.972656 -4.351562 7.828125 -3.875 C 8.691406 -3.394531 9.675781 -3.15625 10.78125 -3.15625 C 11.945312 -3.15625 13 -3.40625 13.9375 -3.90625 Z M 13.9375 -9.046875 "/></g></g></g><g fill="#ffffff" fill-opacity="1"><g transform="translate(580.512638, 164.308736)"><g><path d="M 15.015625 -6.6875 C 15.015625 -6.632812 14.988281 -6.285156 14.9375 -5.640625 L 4.734375 -5.640625 C 4.921875 -4.804688 5.351562 -4.144531 6.03125 -3.65625 C 6.71875 -3.175781 7.570312 -2.9375 8.59375 -2.9375 C 9.300781 -2.9375 9.925781 -3.039062 10.46875 -3.25 C 11.007812 -3.457031 11.515625 -3.785156 11.984375 -4.234375 L 14.0625 -1.984375 C 12.789062 -0.523438 10.9375 0.203125 8.5 0.203125 C 6.976562 0.203125 5.628906 -0.09375 4.453125 -0.6875 C 3.285156 -1.28125 2.382812 -2.101562 1.75 -3.15625 C 1.113281 -4.207031 0.796875 -5.398438 0.796875 -6.734375 C 0.796875 -8.054688 1.109375 -9.25 1.734375 -10.3125 C 2.367188 -11.375 3.234375 -12.203125 4.328125 -12.796875 C 5.421875 -13.390625 6.644531 -13.6875 8 -13.6875 C 9.3125 -13.6875 10.503906 -13.398438 11.578125 -12.828125 C 12.648438 -12.265625 13.488281 -11.453125 14.09375 -10.390625 C 14.707031 -9.328125 15.015625 -8.09375 15.015625 -6.6875 Z M 8.015625 -10.734375 C 7.128906 -10.734375 6.382812 -10.476562 5.78125 -9.96875 C 5.1875 -9.46875 4.820312 -8.785156 4.6875 -7.921875 L 11.328125 -7.921875 C 11.191406 -8.773438 10.820312 -9.457031 10.21875 -9.96875 C 9.625 -10.476562 8.890625 -10.734375 8.015625 -10.734375 Z M 8.015625 -10.734375 "/></g></g></g><g fill="#ffffff" fill-opacity="1"><g transform="translate(596.329892, 164.308736)"><g><path d="M 10 -13.6875 C 11.664062 -13.6875 13.015625 -13.179688 14.046875 -12.171875 C 15.078125 -11.171875 15.59375 -9.6875 15.59375 -7.71875 L 15.59375 0 L 11.671875 0 L 11.671875 -7.125 C 11.671875 -8.1875 11.4375 -8.976562 10.96875 -9.5 C 10.507812 -10.03125 9.835938 -10.296875 8.953125 -10.296875 C 7.960938 -10.296875 7.175781 -9.988281 6.59375 -9.375 C 6.007812 -8.769531 5.71875 -7.867188 5.71875 -6.671875 L 5.71875 0 L 1.796875 0 L 1.796875 -13.484375 L 5.53125 -13.484375 L 5.53125 -11.90625 C 6.050781 -12.46875 6.695312 -12.90625 7.46875 -13.21875 C 8.238281 -13.53125 9.082031 -13.6875 10 -13.6875 Z M 10 -13.6875 "/></g></g></g><g fill="#ffffff" fill-opacity="1"><g transform="translate(613.651158, 164.308736)"><g><path d="M 15.015625 -6.6875 C 15.015625 -6.632812 14.988281 -6.285156 14.9375 -5.640625 L 4.734375 -5.640625 C 4.921875 -4.804688 5.351562 -4.144531 6.03125 -3.65625 C 6.71875 -3.175781 7.570312 -2.9375 8.59375 -2.9375 C 9.300781 -2.9375 9.925781 -3.039062 10.46875 -3.25 C 11.007812 -3.457031 11.515625 -3.785156 11.984375 -4.234375 L 14.0625 -1.984375 C 12.789062 -0.523438 10.9375 0.203125 8.5 0.203125 C 6.976562 0.203125 5.628906 -0.09375 4.453125 -0.6875 C 3.285156 -1.28125 2.382812 -2.101562 1.75 -3.15625 C 1.113281 -4.207031 0.796875 -5.398438 0.796875 -6.734375 C 0.796875 -8.054688 1.109375 -9.25 1.734375 -10.3125 C 2.367188 -11.375 3.234375 -12.203125 4.328125 -12.796875 C 5.421875 -13.390625 6.644531 -13.6875 8 -13.6875 C 9.3125 -13.6875 10.503906 -13.398438 11.578125 -12.828125 C 12.648438 -12.265625 13.488281 -11.453125 14.09375 -10.390625 C 14.707031 -9.328125 15.015625 -8.09375 15.015625 -6.6875 Z M 8.015625 -10.734375 C 7.128906 -10.734375 6.382812 -10.476562 5.78125 -9.96875 C 5.1875 -9.46875 4.820312 -8.785156 4.6875 -7.921875 L 11.328125 -7.921875 C 11.191406 -8.773438 10.820312 -9.457031 10.21875 -9.96875 C 9.625 -10.476562 8.890625 -10.734375 8.015625 -10.734375 Z M 8.015625 -10.734375 "/></g></g></g><g fill="#ffffff" fill-opacity="1"><g transform="translate(629.468412, 164.308736)"><g><path d="M 5.53125 -11.703125 C 6 -12.359375 6.628906 -12.851562 7.421875 -13.1875 C 8.222656 -13.519531 9.140625 -13.6875 10.171875 -13.6875 L 10.171875 -10.078125 C 9.742188 -10.109375 9.453125 -10.125 9.296875 -10.125 C 8.179688 -10.125 7.304688 -9.8125 6.671875 -9.1875 C 6.035156 -8.5625 5.71875 -7.617188 5.71875 -6.359375 L 5.71875 0 L 1.796875 0 L 1.796875 -13.484375 L 5.53125 -13.484375 Z M 5.53125 -11.703125 "/></g></g></g><g fill="#ffffff" fill-opacity="1"><g transform="translate(640.272263, 164.308736)"><g><path d="M 7.25 -13.6875 C 9.332031 -13.6875 10.929688 -13.1875 12.046875 -12.1875 C 13.171875 -11.195312 13.734375 -9.695312 13.734375 -7.6875 L 13.734375 0 L 10.078125 0 L 10.078125 -1.671875 C 9.335938 -0.421875 7.96875 0.203125 5.96875 0.203125 C 4.925781 0.203125 4.023438 0.0234375 3.265625 -0.328125 C 2.503906 -0.679688 1.921875 -1.164062 1.515625 -1.78125 C 1.117188 -2.394531 0.921875 -3.097656 0.921875 -3.890625 C 0.921875 -5.140625 1.394531 -6.125 2.34375 -6.84375 C 3.289062 -7.5625 4.75 -7.921875 6.71875 -7.921875 L 9.828125 -7.921875 C 9.828125 -8.773438 9.566406 -9.429688 9.046875 -9.890625 C 8.523438 -10.347656 7.75 -10.578125 6.71875 -10.578125 C 6 -10.578125 5.289062 -10.460938 4.59375 -10.234375 C 3.90625 -10.015625 3.316406 -9.710938 2.828125 -9.328125 L 1.421875 -12.0625 C 2.160156 -12.570312 3.039062 -12.96875 4.0625 -13.25 C 5.09375 -13.539062 6.15625 -13.6875 7.25 -13.6875 Z M 6.9375 -2.4375 C 7.601562 -2.4375 8.195312 -2.585938 8.71875 -2.890625 C 9.238281 -3.203125 9.609375 -3.660156 9.828125 -4.265625 L 9.828125 -5.640625 L 7.140625 -5.640625 C 5.535156 -5.640625 4.734375 -5.113281 4.734375 -4.0625 C 4.734375 -3.5625 4.929688 -3.164062 5.328125 -2.875 C 5.722656 -2.582031 6.257812 -2.4375 6.9375 -2.4375 Z M 6.9375 -2.4375 "/></g></g></g><g fill="#ffffff" fill-opacity="1"><g transform="translate(655.738561, 164.308736)"><g><path d="M 10.5 -0.65625 C 10.113281 -0.363281 9.640625 -0.144531 9.078125 0 C 8.523438 0.132812 7.9375 0.203125 7.3125 0.203125 C 5.707031 0.203125 4.46875 -0.203125 3.59375 -1.015625 C 2.71875 -1.835938 2.28125 -3.046875 2.28125 -4.640625 L 2.28125 -10.171875 L 0.203125 -10.171875 L 0.203125 -13.1875 L 2.28125 -13.1875 L 2.28125 -16.46875 L 6.1875 -16.46875 L 6.1875 -13.1875 L 9.546875 -13.1875 L 9.546875 -10.171875 L 6.1875 -10.171875 L 6.1875 -4.6875 C 6.1875 -4.113281 6.332031 -3.671875 6.625 -3.359375 C 6.914062 -3.054688 7.332031 -2.90625 7.875 -2.90625 C 8.488281 -2.90625 9.015625 -3.070312 9.453125 -3.40625 Z M 10.5 -0.65625 "/></g></g></g><g fill="#ffffff" fill-opacity="1"><g transform="translate(666.642685, 164.308736)"><g><path d="M 1.796875 -13.484375 L 5.71875 -13.484375 L 5.71875 0 L 1.796875 0 Z M 3.765625 -15.359375 C 3.046875 -15.359375 2.457031 -15.566406 2 -15.984375 C 1.550781 -16.398438 1.328125 -16.921875 1.328125 -17.546875 C 1.328125 -18.160156 1.550781 -18.675781 2 -19.09375 C 2.457031 -19.507812 3.046875 -19.71875 3.765625 -19.71875 C 4.484375 -19.71875 5.066406 -19.515625 5.515625 -19.109375 C 5.960938 -18.710938 6.1875 -18.21875 6.1875 -17.625 C 6.1875 -16.96875 5.960938 -16.425781 5.515625 -16 C 5.066406 -15.570312 4.484375 -15.359375 3.765625 -15.359375 Z M 3.765625 -15.359375 "/></g></g></g><g fill="#ffffff" fill-opacity="1"><g transform="translate(674.187857, 164.308736)"><g><path d="M 8.21875 0.203125 C 6.800781 0.203125 5.523438 -0.09375 4.390625 -0.6875 C 3.265625 -1.28125 2.382812 -2.101562 1.75 -3.15625 C 1.113281 -4.207031 0.796875 -5.398438 0.796875 -6.734375 C 0.796875 -8.078125 1.113281 -9.273438 1.75 -10.328125 C 2.382812 -11.378906 3.265625 -12.203125 4.390625 -12.796875 C 5.523438 -13.390625 6.800781 -13.6875 8.21875 -13.6875 C 9.632812 -13.6875 10.898438 -13.390625 12.015625 -12.796875 C 13.140625 -12.203125 14.019531 -11.378906 14.65625 -10.328125 C 15.289062 -9.273438 15.609375 -8.078125 15.609375 -6.734375 C 15.609375 -5.398438 15.289062 -4.207031 14.65625 -3.15625 C 14.019531 -2.101562 13.140625 -1.28125 12.015625 -0.6875 C 10.898438 -0.09375 9.632812 0.203125 8.21875 0.203125 Z M 8.21875 -3 C 9.21875 -3 10.039062 -3.335938 10.6875 -4.015625 C 11.332031 -4.691406 11.65625 -5.597656 11.65625 -6.734375 C 11.65625 -7.878906 11.332031 -8.785156 10.6875 -9.453125 C 10.039062 -10.128906 9.21875 -10.46875 8.21875 -10.46875 C 7.21875 -10.46875 6.390625 -10.128906 5.734375 -9.453125 C 5.085938 -8.785156 4.765625 -7.878906 4.765625 -6.734375 C 4.765625 -5.597656 5.085938 -4.691406 5.734375 -4.015625 C 6.390625 -3.335938 7.21875 -3 8.21875 -3 Z M 8.21875 -3 "/></g></g></g><g fill="#ffffff" fill-opacity="1"><g transform="translate(690.60672, 164.308736)"><g><path d="M 10 -13.6875 C 11.664062 -13.6875 13.015625 -13.179688 14.046875 -12.171875 C 15.078125 -11.171875 15.59375 -9.6875 15.59375 -7.71875 L 15.59375 0 L 11.671875 0 L 11.671875 -7.125 C 11.671875 -8.1875 11.4375 -8.976562 10.96875 -9.5 C 10.507812 -10.03125 9.835938 -10.296875 8.953125 -10.296875 C 7.960938 -10.296875 7.175781 -9.988281 6.59375 -9.375 C 6.007812 -8.769531 5.71875 -7.867188 5.71875 -6.671875 L 5.71875 0 L 1.796875 0 L 1.796875 -13.484375 L 5.53125 -13.484375 L 5.53125 -11.90625 C 6.050781 -12.46875 6.695312 -12.90625 7.46875 -13.21875 C 8.238281 -13.53125 9.082031 -13.6875 10 -13.6875 Z M 10 -13.6875 "/></g></g></g><g fill="#ffffff" fill-opacity="1"><g transform="translate(707.927986, 164.308736)"><g/></g></g><g fill="#ffffff" fill-opacity="1"><g transform="translate(715.021929, 164.308736)"><g><path d="M 8.21875 0.203125 C 6.800781 0.203125 5.523438 -0.09375 4.390625 -0.6875 C 3.265625 -1.28125 2.382812 -2.101562 1.75 -3.15625 C 1.113281 -4.207031 0.796875 -5.398438 0.796875 -6.734375 C 0.796875 -8.078125 1.113281 -9.273438 1.75 -10.328125 C 2.382812 -11.378906 3.265625 -12.203125 4.390625 -12.796875 C 5.523438 -13.390625 6.800781 -13.6875 8.21875 -13.6875 C 9.632812 -13.6875 10.898438 -13.390625 12.015625 -12.796875 C 13.140625 -12.203125 14.019531 -11.378906 14.65625 -10.328125 C 15.289062 -9.273438 15.609375 -8.078125 15.609375 -6.734375 C 15.609375 -5.398438 15.289062 -4.207031 14.65625 -3.15625 C 14.019531 -2.101562 13.140625 -1.28125 12.015625 -0.6875 C 10.898438 -0.09375 9.632812 0.203125 8.21875 0.203125 Z M 8.21875 -3 C 9.21875 -3 10.039062 -3.335938 10.6875 -4.015625 C 11.332031 -4.691406 11.65625 -5.597656 11.65625 -6.734375 C 11.65625 -7.878906 11.332031 -8.785156 10.6875 -9.453125 C 10.039062 -10.128906 9.21875 -10.46875 8.21875 -10.46875 C 7.21875 -10.46875 6.390625 -10.128906 5.734375 -9.453125 C 5.085938 -8.785156 4.765625 -7.878906 4.765625 -6.734375 C 4.765625 -5.597656 5.085938 -4.691406 5.734375 -4.015625 C 6.390625 -3.335938 7.21875 -3 8.21875 -3 Z M 8.21875 -3 "/></g></g></g><g fill="#ffffff" fill-opacity="1"><g transform="translate(731.440793, 164.308736)"><g><path d="M 6.09375 -13.1875 L 9.546875 -13.1875 L 9.546875 -10.171875 L 6.1875 -10.171875 L 6.1875 0 L 2.28125 0 L 2.28125 -10.171875 L 0.203125 -10.171875 L 0.203125 -13.1875 L 2.28125 -13.1875 L 2.28125 -13.78125 C 2.28125 -15.320312 2.734375 -16.539062 3.640625 -17.4375 C 4.554688 -18.34375 5.84375 -18.796875 7.5 -18.796875 C 8.082031 -18.796875 8.632812 -18.734375 9.15625 -18.609375 C 9.6875 -18.484375 10.125 -18.300781 10.46875 -18.0625 L 9.453125 -15.234375 C 8.992188 -15.554688 8.46875 -15.71875 7.875 -15.71875 C 6.6875 -15.71875 6.09375 -15.066406 6.09375 -13.765625 Z M 6.09375 -13.1875 "/></g></g></g><g fill="#ffffff" fill-opacity="1"><g transform="translate(741.141723, 164.308736)"><g/></g></g><g fill="#ffffff" fill-opacity="1"><g transform="translate(748.235666, 164.308736)"><g><path d="M 7.84375 0.296875 C 6.457031 0.296875 5.113281 0.109375 3.8125 -0.265625 C 2.519531 -0.640625 1.484375 -1.128906 0.703125 -1.734375 L 2.078125 -4.78125 C 2.828125 -4.226562 3.71875 -3.785156 4.75 -3.453125 C 5.789062 -3.117188 6.832031 -2.953125 7.875 -2.953125 C 9.019531 -2.953125 9.867188 -3.125 10.421875 -3.46875 C 10.972656 -3.8125 11.25 -4.269531 11.25 -4.84375 C 11.25 -5.257812 11.085938 -5.601562 10.765625 -5.875 C 10.441406 -6.15625 10.023438 -6.378906 9.515625 -6.546875 C 9.003906 -6.710938 8.3125 -6.894531 7.4375 -7.09375 C 6.101562 -7.40625 5.007812 -7.71875 4.15625 -8.03125 C 3.300781 -8.351562 2.566406 -8.863281 1.953125 -9.5625 C 1.347656 -10.269531 1.046875 -11.207031 1.046875 -12.375 C 1.046875 -13.394531 1.320312 -14.316406 1.875 -15.140625 C 2.425781 -15.972656 3.257812 -16.628906 4.375 -17.109375 C 5.488281 -17.597656 6.847656 -17.84375 8.453125 -17.84375 C 9.566406 -17.84375 10.65625 -17.707031 11.71875 -17.4375 C 12.789062 -17.175781 13.726562 -16.796875 14.53125 -16.296875 L 13.28125 -13.203125 C 11.664062 -14.128906 10.046875 -14.59375 8.421875 -14.59375 C 7.285156 -14.59375 6.445312 -14.40625 5.90625 -14.03125 C 5.363281 -13.664062 5.09375 -13.179688 5.09375 -12.578125 C 5.09375 -11.972656 5.40625 -11.523438 6.03125 -11.234375 C 6.65625 -10.941406 7.609375 -10.65625 8.890625 -10.375 C 10.234375 -10.0625 11.328125 -9.742188 12.171875 -9.421875 C 13.023438 -9.109375 13.753906 -8.609375 14.359375 -7.921875 C 14.972656 -7.234375 15.28125 -6.304688 15.28125 -5.140625 C 15.28125 -4.140625 15 -3.222656 14.4375 -2.390625 C 13.882812 -1.566406 13.046875 -0.910156 11.921875 -0.421875 C 10.804688 0.0546875 9.445312 0.296875 7.84375 0.296875 Z M 7.84375 0.296875 "/></g></g></g><g fill="#ffffff" fill-opacity="1"><g transform="translate(764.228383, 164.308736)"><g><path d="M 8.21875 0.203125 C 6.800781 0.203125 5.523438 -0.09375 4.390625 -0.6875 C 3.265625 -1.28125 2.382812 -2.101562 1.75 -3.15625 C 1.113281 -4.207031 0.796875 -5.398438 0.796875 -6.734375 C 0.796875 -8.078125 1.113281 -9.273438 1.75 -10.328125 C 2.382812 -11.378906 3.265625 -12.203125 4.390625 -12.796875 C 5.523438 -13.390625 6.800781 -13.6875 8.21875 -13.6875 C 9.632812 -13.6875 10.898438 -13.390625 12.015625 -12.796875 C 13.140625 -12.203125 14.019531 -11.378906 14.65625 -10.328125 C 15.289062 -9.273438 15.609375 -8.078125 15.609375 -6.734375 C 15.609375 -5.398438 15.289062 -4.207031 14.65625 -3.15625 C 14.019531 -2.101562 13.140625 -1.28125 12.015625 -0.6875 C 10.898438 -0.09375 9.632812 0.203125 8.21875 0.203125 Z M 8.21875 -3 C 9.21875 -3 10.039062 -3.335938 10.6875 -4.015625 C 11.332031 -4.691406 11.65625 -5.597656 11.65625 -6.734375 C 11.65625 -7.878906 11.332031 -8.785156 10.6875 -9.453125 C 10.039062 -10.128906 9.21875 -10.46875 8.21875 -10.46875 C 7.21875 -10.46875 6.390625 -10.128906 5.734375 -9.453125 C 5.085938 -8.785156 4.765625 -7.878906 4.765625 -6.734375 C 4.765625 -5.597656 5.085938 -4.691406 5.734375 -4.015625 C 6.390625 -3.335938 7.21875 -3 8.21875 -3 Z M 8.21875 -3 "/></g></g></g><g fill="#ffffff" fill-opacity="1"><g transform="translate(780.647247, 164.308736)"><g><path d="M 6.09375 -13.1875 L 9.546875 -13.1875 L 9.546875 -10.171875 L 6.1875 -10.171875 L 6.1875 0 L 2.28125 0 L 2.28125 -10.171875 L 0.203125 -10.171875 L 0.203125 -13.1875 L 2.28125 -13.1875 L 2.28125 -13.78125 C 2.28125 -15.320312 2.734375 -16.539062 3.640625 -17.4375 C 4.554688 -18.34375 5.84375 -18.796875 7.5 -18.796875 C 8.082031 -18.796875 8.632812 -18.734375 9.15625 -18.609375 C 9.6875 -18.484375 10.125 -18.300781 10.46875 -18.0625 L 9.453125 -15.234375 C 8.992188 -15.554688 8.46875 -15.71875 7.875 -15.71875 C 6.6875 -15.71875 6.09375 -15.066406 6.09375 -13.765625 Z M 6.09375 -13.1875 "/></g></g></g><g fill="#ffffff" fill-opacity="1"><g transform="translate(790.34815, 164.308736)"><g><path d="M 10.5 -0.65625 C 10.113281 -0.363281 9.640625 -0.144531 9.078125 0 C 8.523438 0.132812 7.9375 0.203125 7.3125 0.203125 C 5.707031 0.203125 4.46875 -0.203125 3.59375 -1.015625 C 2.71875 -1.835938 2.28125 -3.046875 2.28125 -4.640625 L 2.28125 -10.171875 L 0.203125 -10.171875 L 0.203125 -13.1875 L 2.28125 -13.1875 L 2.28125 -16.46875 L 6.1875 -16.46875 L 6.1875 -13.1875 L 9.546875 -13.1875 L 9.546875 -10.171875 L 6.1875 -10.171875 L 6.1875 -4.6875 C 6.1875 -4.113281 6.332031 -3.671875 6.625 -3.359375 C 6.914062 -3.054688 7.332031 -2.90625 7.875 -2.90625 C 8.488281 -2.90625 9.015625 -3.070312 9.453125 -3.40625 Z M 10.5 -0.65625 "/></g></g></g><g fill="#ffffff" fill-opacity="1"><g transform="translate(801.252274, 164.308736)"><g><path d="M 23.453125 -13.484375 L 18.578125 0 L 14.8125 0 L 11.78125 -8.375 L 8.640625 0 L 4.890625 0 L 0.03125 -13.484375 L 3.703125 -13.484375 L 6.890625 -4.359375 L 10.203125 -13.484375 L 13.515625 -13.484375 L 16.71875 -4.359375 L 20 -13.484375 Z M 23.453125 -13.484375 "/></g></g></g><g fill="#ffffff" fill-opacity="1"><g transform="translate(824.740026, 164.308736)"><g><path d="M 7.25 -13.6875 C 9.332031 -13.6875 10.929688 -13.1875 12.046875 -12.1875 C 13.171875 -11.195312 13.734375 -9.695312 13.734375 -7.6875 L 13.734375 0 L 10.078125 0 L 10.078125 -1.671875 C 9.335938 -0.421875 7.96875 0.203125 5.96875 0.203125 C 4.925781 0.203125 4.023438 0.0234375 3.265625 -0.328125 C 2.503906 -0.679688 1.921875 -1.164062 1.515625 -1.78125 C 1.117188 -2.394531 0.921875 -3.097656 0.921875 -3.890625 C 0.921875 -5.140625 1.394531 -6.125 2.34375 -6.84375 C 3.289062 -7.5625 4.75 -7.921875 6.71875 -7.921875 L 9.828125 -7.921875 C 9.828125 -8.773438 9.566406 -9.429688 9.046875 -9.890625 C 8.523438 -10.347656 7.75 -10.578125 6.71875 -10.578125 C 6 -10.578125 5.289062 -10.460938 4.59375 -10.234375 C 3.90625 -10.015625 3.316406 -9.710938 2.828125 -9.328125 L 1.421875 -12.0625 C 2.160156 -12.570312 3.039062 -12.96875 4.0625 -13.25 C 5.09375 -13.539062 6.15625 -13.6875 7.25 -13.6875 Z M 6.9375 -2.4375 C 7.601562 -2.4375 8.195312 -2.585938 8.71875 -2.890625 C 9.238281 -3.203125 9.609375 -3.660156 9.828125 -4.265625 L 9.828125 -5.640625 L 7.140625 -5.640625 C 5.535156 -5.640625 4.734375 -5.113281 4.734375 -4.0625 C 4.734375 -3.5625 4.929688 -3.164062 5.328125 -2.875 C 5.722656 -2.582031 6.257812 -2.4375 6.9375 -2.4375 Z M 6.9375 -2.4375 "/></g></g></g><g fill="#ffffff" fill-opacity="1"><g transform="translate(840.206325, 164.308736)"><g><path d="M 5.53125 -11.703125 C 6 -12.359375 6.628906 -12.851562 7.421875 -13.1875 C 8.222656 -13.519531 9.140625 -13.6875 10.171875 -13.6875 L 10.171875 -10.078125 C 9.742188 -10.109375 9.453125 -10.125 9.296875 -10.125 C 8.179688 -10.125 7.304688 -9.8125 6.671875 -9.1875 C 6.035156 -8.5625 5.71875 -7.617188 5.71875 -6.359375 L 5.71875 0 L 1.796875 0 L 1.796875 -13.484375 L 5.53125 -13.484375 Z M 5.53125 -11.703125 "/></g></g></g><g fill="#ffffff" fill-opacity="1"><g transform="translate(851.010176, 164.308736)"><g><path d="M 15.015625 -6.6875 C 15.015625 -6.632812 14.988281 -6.285156 14.9375 -5.640625 L 4.734375 -5.640625 C 4.921875 -4.804688 5.351562 -4.144531 6.03125 -3.65625 C 6.71875 -3.175781 7.570312 -2.9375 8.59375 -2.9375 C 9.300781 -2.9375 9.925781 -3.039062 10.46875 -3.25 C 11.007812 -3.457031 11.515625 -3.785156 11.984375 -4.234375 L 14.0625 -1.984375 C 12.789062 -0.523438 10.9375 0.203125 8.5 0.203125 C 6.976562 0.203125 5.628906 -0.09375 4.453125 -0.6875 C 3.285156 -1.28125 2.382812 -2.101562 1.75 -3.15625 C 1.113281 -4.207031 0.796875 -5.398438 0.796875 -6.734375 C 0.796875 -8.054688 1.109375 -9.25 1.734375 -10.3125 C 2.367188 -11.375 3.234375 -12.203125 4.328125 -12.796875 C 5.421875 -13.390625 6.644531 -13.6875 8 -13.6875 C 9.3125 -13.6875 10.503906 -13.398438 11.578125 -12.828125 C 12.648438 -12.265625 13.488281 -11.453125 14.09375 -10.390625 C 14.707031 -9.328125 15.015625 -8.09375 15.015625 -6.6875 Z M 8.015625 -10.734375 C 7.128906 -10.734375 6.382812 -10.476562 5.78125 -9.96875 C 5.1875 -9.46875 4.820312 -8.785156 4.6875 -7.921875 L 11.328125 -7.921875 C 11.191406 -8.773438 10.820312 -9.457031 10.21875 -9.96875 C 9.625 -10.476562 8.890625 -10.734375 8.015625 -10.734375 Z M 8.015625 -10.734375 "/></g></g></g><path stroke-linecap="butt" transform="matrix(0.000000001566, 0.897254, -0.897254, 0.000000001566, 257.015206, 46.857458)" fill="none" stroke-linejoin="miter" d="M 0.00213663 2.002171 L 129.982032 2.002172 " stroke="#ffffff" stroke-width="4" stroke-opacity="1" stroke-miterlimit="4"/></svg>