<svg xmlns="http://www.w3.org/2000/svg" xmlns:xlink="http://www.w3.org/1999/xlink" width="500" zoomAndPan="magnify" viewBox="0 0 375 187.499995" height="250" preserveAspectRatio="xMidYMid meet" version="1.0"><defs><g/><clipPath id="2c12edf9ad"><path d="M 23.152344 17 L 138.730469 17 L 138.730469 129 L 23.152344 129 Z M 23.152344 17 " clip-rule="nonzero"/></clipPath><clipPath id="2b80610db8"><path d="M 56 128 L 97 128 L 97 170.15625 L 56 170.15625 Z M 56 128 " clip-rule="nonzero"/></clipPath></defs><g clip-path="url(#2c12edf9ad)"><path fill="#00bf63" d="M 133.640625 66.898438 C 131.167969 65.054688 121.992188 55.984375 108.933594 66.425781 C 106.046875 68.523438 104.585938 69.890625 104.585938 69.890625 C 104.585938 69.890625 83.460938 31.21875 23.136719 17 C 23.136719 17 94.792969 45.753906 98.976562 128.5625 C 119.609375 103.980469 122.644531 73.980469 130.984375 72.644531 C 135.941406 71.851562 138.671875 74.636719 138.671875 74.636719 C 138.671875 74.636719 138.292969 70.375 133.640625 66.898438 " fill-opacity="1" fill-rule="nonzero"/></g><path fill="#00bf63" d="M 96.027344 136.992188 L 95.609375 128.734375 C 95.261719 121.84375 94.429688 115.164062 93.128906 108.703125 L 56.128906 128.5625 C 56.128906 128.5625 74.484375 150.027344 96.027344 136.992188 " fill-opacity="1" fill-rule="nonzero"/><g clip-path="url(#2b80610db8)"><path fill="#ffffff" d="M 56.128906 128.5625 L 84.460938 170.035156 L 96.027344 136.992188 C 74.484375 150.027344 56.128906 128.5625 56.128906 128.5625 " fill-opacity="1" fill-rule="nonzero"/></g><g fill="#ffffff" fill-opacity="1"><g transform="translate(142.219274, 101.815729)"><g><path d="M 16.125 0.625 C 13.28125 0.625 10.523438 0.238281 7.859375 -0.53125 C 5.191406 -1.3125 3.050781 -2.320312 1.4375 -3.5625 L 4.28125 -9.84375 C 5.820312 -8.707031 7.65625 -7.796875 9.78125 -7.109375 C 11.914062 -6.421875 14.050781 -6.078125 16.1875 -6.078125 C 18.550781 -6.078125 20.300781 -6.425781 21.4375 -7.125 C 22.570312 -7.832031 23.140625 -8.773438 23.140625 -9.953125 C 23.140625 -10.804688 22.800781 -11.515625 22.125 -12.078125 C 21.457031 -12.648438 20.597656 -13.109375 19.546875 -13.453125 C 18.503906 -13.796875 17.09375 -14.171875 15.3125 -14.578125 C 12.5625 -15.234375 10.304688 -15.882812 8.546875 -16.53125 C 6.796875 -17.1875 5.296875 -18.234375 4.046875 -19.671875 C 2.796875 -21.117188 2.171875 -23.046875 2.171875 -25.453125 C 2.171875 -27.546875 2.734375 -29.441406 3.859375 -31.140625 C 4.992188 -32.847656 6.703125 -34.195312 8.984375 -35.1875 C 11.273438 -36.1875 14.066406 -36.6875 17.359375 -36.6875 C 19.660156 -36.6875 21.910156 -36.410156 24.109375 -35.859375 C 26.316406 -35.316406 28.242188 -34.53125 29.890625 -33.5 L 27.3125 -27.15625 C 23.976562 -29.039062 20.644531 -29.984375 17.3125 -29.984375 C 14.976562 -29.984375 13.25 -29.601562 12.125 -28.84375 C 11.007812 -28.09375 10.453125 -27.101562 10.453125 -25.875 C 10.453125 -24.632812 11.097656 -23.710938 12.390625 -23.109375 C 13.679688 -22.503906 15.648438 -21.910156 18.296875 -21.328125 C 21.046875 -20.679688 23.296875 -20.03125 25.046875 -19.375 C 26.796875 -18.71875 28.296875 -17.6875 29.546875 -16.28125 C 30.804688 -14.875 31.4375 -12.96875 31.4375 -10.5625 C 31.4375 -8.5 30.859375 -6.617188 29.703125 -4.921875 C 28.554688 -3.222656 26.832031 -1.875 24.53125 -0.875 C 22.226562 0.125 19.425781 0.625 16.125 0.625 Z M 16.125 0.625 "/></g></g></g><g fill="#ffffff" fill-opacity="1"><g transform="translate(175.087587, 101.815729)"><g><path d="M 11.75 -29.265625 L 0.203125 -29.265625 L 0.203125 -36.078125 L 31.640625 -36.078125 L 31.640625 -29.265625 L 20.09375 -29.265625 L 20.09375 0 L 11.75 0 Z M 11.75 -29.265625 "/></g></g></g><g fill="#ffffff" fill-opacity="1"><g transform="translate(206.925544, 101.815729)"><g><path d="M 16.125 0.625 C 13.28125 0.625 10.523438 0.238281 7.859375 -0.53125 C 5.191406 -1.3125 3.050781 -2.320312 1.4375 -3.5625 L 4.28125 -9.84375 C 5.820312 -8.707031 7.65625 -7.796875 9.78125 -7.109375 C 11.914062 -6.421875 14.050781 -6.078125 16.1875 -6.078125 C 18.550781 -6.078125 20.300781 -6.425781 21.4375 -7.125 C 22.570312 -7.832031 23.140625 -8.773438 23.140625 -9.953125 C 23.140625 -10.804688 22.800781 -11.515625 22.125 -12.078125 C 21.457031 -12.648438 20.597656 -13.109375 19.546875 -13.453125 C 18.503906 -13.796875 17.09375 -14.171875 15.3125 -14.578125 C 12.5625 -15.234375 10.304688 -15.882812 8.546875 -16.53125 C 6.796875 -17.1875 5.296875 -18.234375 4.046875 -19.671875 C 2.796875 -21.117188 2.171875 -23.046875 2.171875 -25.453125 C 2.171875 -27.546875 2.734375 -29.441406 3.859375 -31.140625 C 4.992188 -32.847656 6.703125 -34.195312 8.984375 -35.1875 C 11.273438 -36.1875 14.066406 -36.6875 17.359375 -36.6875 C 19.660156 -36.6875 21.910156 -36.410156 24.109375 -35.859375 C 26.316406 -35.316406 28.242188 -34.53125 29.890625 -33.5 L 27.3125 -27.15625 C 23.976562 -29.039062 20.644531 -29.984375 17.3125 -29.984375 C 14.976562 -29.984375 13.25 -29.601562 12.125 -28.84375 C 11.007812 -28.09375 10.453125 -27.101562 10.453125 -25.875 C 10.453125 -24.632812 11.097656 -23.710938 12.390625 -23.109375 C 13.679688 -22.503906 15.648438 -21.910156 18.296875 -21.328125 C 21.046875 -20.679688 23.296875 -20.03125 25.046875 -19.375 C 26.796875 -18.71875 28.296875 -17.6875 29.546875 -16.28125 C 30.804688 -14.875 31.4375 -12.96875 31.4375 -10.5625 C 31.4375 -8.5 30.859375 -6.617188 29.703125 -4.921875 C 28.554688 -3.222656 26.832031 -1.875 24.53125 -0.875 C 22.226562 0.125 19.425781 0.625 16.125 0.625 Z M 16.125 0.625 "/></g></g></g><g fill="#ffffff" fill-opacity="1"><g transform="translate(142.219274, 126.429076)"><g><path d="M 1.671875 0.015625 L 1.671875 -13 L 5.875 -13 C 6.488281 -13 7.066406 -12.914062 7.609375 -12.75 C 8.148438 -12.582031 8.625 -12.332031 9.03125 -12 C 9.445312 -11.675781 9.773438 -11.273438 10.015625 -10.796875 C 10.253906 -10.316406 10.375 -9.773438 10.375 -9.171875 C 10.375 -8.628906 10.265625 -8.132812 10.046875 -7.6875 C 9.828125 -7.238281 9.523438 -6.851562 9.140625 -6.53125 C 8.765625 -6.207031 8.332031 -5.957031 7.84375 -5.78125 L 11.453125 0.015625 L 8.78125 0.015625 L 5.578125 -5.5625 L 4.015625 -5.5625 L 4.015625 0.015625 Z M 4.03125 -7.46875 L 6.09375 -7.46875 C 6.707031 -7.5 7.1875 -7.660156 7.53125 -7.953125 C 7.882812 -8.253906 8.0625 -8.648438 8.0625 -9.140625 C 8.0625 -9.679688 7.867188 -10.109375 7.484375 -10.421875 C 7.097656 -10.742188 6.566406 -10.90625 5.890625 -10.90625 L 4.03125 -10.90625 Z M 4.03125 -7.46875 "/></g></g></g><g fill="#ffffff" fill-opacity="1"><g transform="translate(153.882909, 126.429076)"><g><path d="M 1.671875 0 L 1.671875 -13 L 10.328125 -13 L 10.328125 -10.859375 L 4.015625 -10.859375 L 4.015625 -7.578125 L 9.890625 -7.578125 L 9.890625 -5.421875 L 4.015625 -5.421875 L 4.015625 -2.203125 L 10.328125 -2.203125 L 10.328125 0 Z M 1.671875 0 "/></g></g></g><g fill="#ffffff" fill-opacity="1"><g transform="translate(165.33498, 126.429076)"><g><path d="M 0.109375 0 L 5.3125 -13 L 7.0625 -13 L 12.25 0 L 9.71875 0 L 8.71875 -2.828125 L 3.671875 -2.828125 L 2.65625 0 Z M 4.46875 -4.828125 L 7.9375 -4.828125 L 6.203125 -9.5625 Z M 4.46875 -4.828125 "/></g></g></g><g fill="#ffffff" fill-opacity="1"><g transform="translate(177.688498, 126.429076)"><g><path d="M 1.671875 0 L 1.671875 -13 L 5.453125 -13 C 6.929688 -13 8.171875 -12.742188 9.171875 -12.234375 C 10.171875 -11.722656 10.925781 -10.972656 11.4375 -9.984375 C 11.945312 -9.003906 12.203125 -7.8125 12.203125 -6.40625 C 12.203125 -5.050781 11.941406 -3.894531 11.421875 -2.9375 C 10.898438 -1.988281 10.132812 -1.257812 9.125 -0.75 C 8.125 -0.25 6.890625 0 5.421875 0 Z M 4.015625 -2.140625 L 5.203125 -2.140625 C 5.921875 -2.140625 6.566406 -2.210938 7.140625 -2.359375 C 7.710938 -2.515625 8.203125 -2.757812 8.609375 -3.09375 C 9.015625 -3.4375 9.328125 -3.890625 9.546875 -4.453125 C 9.765625 -5.015625 9.875 -5.695312 9.875 -6.5 C 9.875 -7.53125 9.722656 -8.363281 9.421875 -9 C 9.128906 -9.644531 8.65625 -10.113281 8 -10.40625 C 7.34375 -10.707031 6.476562 -10.859375 5.40625 -10.859375 L 4.015625 -10.859375 Z M 4.015625 -2.140625 "/></g></g></g><g fill="#ffffff" fill-opacity="1"><g transform="translate(190.649115, 126.429076)"><g><path d="M 4.859375 0 L 4.859375 -5.0625 L -0.015625 -13 L 2.8125 -13 L 6.046875 -7.3125 L 9.3125 -13 L 12.15625 -13 L 7.296875 -5.0625 L 7.296875 0 Z M 4.859375 0 "/></g></g></g><g fill="#ffffff" fill-opacity="1"><g transform="translate(202.78187, 126.429076)"><g/></g></g><g fill="#ffffff" fill-opacity="1"><g transform="translate(207.307508, 126.429076)"><g><path d="M 1.671875 0 L 1.671875 -13 L 10.890625 -13 L 10.890625 -10.859375 L 4.015625 -10.859375 L 4.015625 -7.578125 L 10.078125 -7.578125 L 10.078125 -5.421875 L 4.015625 -5.421875 L 4.015625 0 Z M 1.671875 0 "/></g></g></g><g fill="#ffffff" fill-opacity="1"><g transform="translate(218.667594, 126.429076)"><g><path d="M 7.03125 0.1875 C 6.164062 0.1875 5.394531 0.0703125 4.71875 -0.15625 C 4.039062 -0.394531 3.453125 -0.722656 2.953125 -1.140625 C 2.460938 -1.566406 2.050781 -2.0625 1.71875 -2.625 C 1.394531 -3.1875 1.148438 -3.796875 0.984375 -4.453125 C 0.828125 -5.117188 0.75 -5.800781 0.75 -6.5 C 0.75 -7.21875 0.828125 -7.90625 0.984375 -8.5625 C 1.148438 -9.21875 1.394531 -9.828125 1.71875 -10.390625 C 2.050781 -10.953125 2.460938 -11.441406 2.953125 -11.859375 C 3.453125 -12.285156 4.039062 -12.613281 4.71875 -12.84375 C 5.394531 -13.070312 6.164062 -13.1875 7.03125 -13.1875 C 7.882812 -13.1875 8.648438 -13.070312 9.328125 -12.84375 C 10.003906 -12.613281 10.59375 -12.285156 11.09375 -11.859375 C 11.59375 -11.441406 12.003906 -10.953125 12.328125 -10.390625 C 12.660156 -9.828125 12.90625 -9.21875 13.0625 -8.5625 C 13.226562 -7.90625 13.3125 -7.21875 13.3125 -6.5 C 13.3125 -5.800781 13.226562 -5.117188 13.0625 -4.453125 C 12.90625 -3.796875 12.660156 -3.1875 12.328125 -2.625 C 12.003906 -2.0625 11.59375 -1.566406 11.09375 -1.140625 C 10.59375 -0.722656 10.003906 -0.394531 9.328125 -0.15625 C 8.648438 0.0703125 7.882812 0.1875 7.03125 0.1875 Z M 7.03125 -1.890625 C 7.726562 -1.890625 8.316406 -2.007812 8.796875 -2.25 C 9.285156 -2.5 9.675781 -2.835938 9.96875 -3.265625 C 10.269531 -3.703125 10.488281 -4.195312 10.625 -4.75 C 10.769531 -5.300781 10.84375 -5.882812 10.84375 -6.5 C 10.84375 -7.113281 10.769531 -7.695312 10.625 -8.25 C 10.488281 -8.800781 10.269531 -9.289062 9.96875 -9.71875 C 9.675781 -10.15625 9.285156 -10.492188 8.796875 -10.734375 C 8.316406 -10.984375 7.726562 -11.109375 7.03125 -11.109375 C 6.332031 -11.109375 5.738281 -10.984375 5.25 -10.734375 C 4.769531 -10.492188 4.378906 -10.15625 4.078125 -9.71875 C 3.785156 -9.289062 3.566406 -8.800781 3.421875 -8.25 C 3.285156 -7.695312 3.21875 -7.113281 3.21875 -6.5 C 3.21875 -5.882812 3.285156 -5.300781 3.421875 -4.75 C 3.566406 -4.195312 3.785156 -3.703125 4.078125 -3.265625 C 4.378906 -2.835938 4.769531 -2.5 5.25 -2.25 C 5.738281 -2.007812 6.332031 -1.890625 7.03125 -1.890625 Z M 7.03125 -1.890625 "/></g></g></g><g fill="#ffffff" fill-opacity="1"><g transform="translate(232.722826, 126.429076)"><g><path d="M 1.671875 0.015625 L 1.671875 -13 L 5.875 -13 C 6.488281 -13 7.066406 -12.914062 7.609375 -12.75 C 8.148438 -12.582031 8.625 -12.332031 9.03125 -12 C 9.445312 -11.675781 9.773438 -11.273438 10.015625 -10.796875 C 10.253906 -10.316406 10.375 -9.773438 10.375 -9.171875 C 10.375 -8.628906 10.265625 -8.132812 10.046875 -7.6875 C 9.828125 -7.238281 9.523438 -6.851562 9.140625 -6.53125 C 8.765625 -6.207031 8.332031 -5.957031 7.84375 -5.78125 L 11.453125 0.015625 L 8.78125 0.015625 L 5.578125 -5.5625 L 4.015625 -5.5625 L 4.015625 0.015625 Z M 4.03125 -7.46875 L 6.09375 -7.46875 C 6.707031 -7.5 7.1875 -7.660156 7.53125 -7.953125 C 7.882812 -8.253906 8.0625 -8.648438 8.0625 -9.140625 C 8.0625 -9.679688 7.867188 -10.109375 7.484375 -10.421875 C 7.097656 -10.742188 6.566406 -10.90625 5.890625 -10.90625 L 4.03125 -10.90625 Z M 4.03125 -7.46875 "/></g></g></g><g fill="#ffffff" fill-opacity="1"><g transform="translate(244.386461, 126.429076)"><g/></g></g><g fill="#ffffff" fill-opacity="1"><g transform="translate(248.912098, 126.429076)"><g><path d="M 5.390625 0.140625 C 4.816406 0.140625 4.253906 0.0625 3.703125 -0.09375 C 3.148438 -0.25 2.644531 -0.484375 2.1875 -0.796875 C 1.738281 -1.117188 1.359375 -1.519531 1.046875 -2 C 0.734375 -2.476562 0.519531 -3.035156 0.40625 -3.671875 L 2.734375 -4.265625 C 2.785156 -3.722656 2.9375 -3.28125 3.1875 -2.9375 C 3.445312 -2.59375 3.769531 -2.335938 4.15625 -2.171875 C 4.539062 -2.003906 4.960938 -1.921875 5.421875 -1.921875 C 5.890625 -1.921875 6.28125 -1.992188 6.59375 -2.140625 C 6.914062 -2.285156 7.160156 -2.484375 7.328125 -2.734375 C 7.492188 -2.992188 7.578125 -3.273438 7.578125 -3.578125 C 7.578125 -3.910156 7.484375 -4.195312 7.296875 -4.4375 C 7.117188 -4.675781 6.878906 -4.882812 6.578125 -5.0625 C 6.285156 -5.238281 5.953125 -5.398438 5.578125 -5.546875 C 5.210938 -5.703125 4.828125 -5.859375 4.421875 -6.015625 C 4.023438 -6.171875 3.640625 -6.347656 3.265625 -6.546875 C 2.890625 -6.742188 2.550781 -6.976562 2.25 -7.25 C 1.957031 -7.53125 1.722656 -7.859375 1.546875 -8.234375 C 1.367188 -8.617188 1.28125 -9.078125 1.28125 -9.609375 C 1.28125 -10.179688 1.382812 -10.691406 1.59375 -11.140625 C 1.8125 -11.585938 2.109375 -11.960938 2.484375 -12.265625 C 2.867188 -12.566406 3.300781 -12.796875 3.78125 -12.953125 C 4.269531 -13.109375 4.789062 -13.1875 5.34375 -13.1875 C 6.144531 -13.1875 6.890625 -13.003906 7.578125 -12.640625 C 8.273438 -12.273438 8.847656 -11.695312 9.296875 -10.90625 L 7.359375 -9.71875 C 7.128906 -10.164062 6.828125 -10.507812 6.453125 -10.75 C 6.085938 -10.988281 5.6875 -11.109375 5.25 -11.109375 C 4.945312 -11.109375 4.671875 -11.050781 4.421875 -10.9375 C 4.171875 -10.820312 3.972656 -10.660156 3.828125 -10.453125 C 3.679688 -10.242188 3.609375 -10 3.609375 -9.71875 C 3.609375 -9.414062 3.695312 -9.15625 3.875 -8.9375 C 4.0625 -8.71875 4.300781 -8.523438 4.59375 -8.359375 C 4.894531 -8.203125 5.234375 -8.050781 5.609375 -7.90625 C 5.984375 -7.757812 6.367188 -7.609375 6.765625 -7.453125 C 7.160156 -7.296875 7.546875 -7.113281 7.921875 -6.90625 C 8.296875 -6.707031 8.628906 -6.46875 8.921875 -6.1875 C 9.222656 -5.914062 9.460938 -5.582031 9.640625 -5.1875 C 9.816406 -4.789062 9.90625 -4.328125 9.90625 -3.796875 C 9.90625 -3.179688 9.785156 -2.628906 9.546875 -2.140625 C 9.316406 -1.648438 8.992188 -1.234375 8.578125 -0.890625 C 8.160156 -0.554688 7.679688 -0.300781 7.140625 -0.125 C 6.597656 0.0507812 6.015625 0.140625 5.390625 0.140625 Z M 5.390625 0.140625 "/></g></g></g><g fill="#ffffff" fill-opacity="1"><g transform="translate(259.370736, 126.429076)"><g><path d="M 6.34375 0.1875 C 5.175781 0.1875 4.226562 -0.0234375 3.5 -0.453125 C 2.769531 -0.890625 2.234375 -1.503906 1.890625 -2.296875 C 1.546875 -3.085938 1.375 -4.007812 1.375 -5.0625 L 1.375 -13 L 3.703125 -13 L 3.703125 -5.34375 C 3.703125 -4.632812 3.773438 -4.035156 3.921875 -3.546875 C 4.078125 -3.066406 4.347656 -2.695312 4.734375 -2.4375 C 5.117188 -2.1875 5.65625 -2.0625 6.34375 -2.0625 C 7.039062 -2.0625 7.578125 -2.1875 7.953125 -2.4375 C 8.335938 -2.695312 8.601562 -3.066406 8.75 -3.546875 C 8.90625 -4.035156 8.984375 -4.632812 8.984375 -5.34375 L 8.984375 -13 L 11.328125 -13 L 11.328125 -5.15625 C 11.328125 -4.070312 11.148438 -3.128906 10.796875 -2.328125 C 10.453125 -1.523438 9.914062 -0.90625 9.1875 -0.46875 C 8.457031 -0.03125 7.507812 0.1875 6.34375 0.1875 Z M 6.34375 0.1875 "/></g></g></g><g fill="#ffffff" fill-opacity="1"><g transform="translate(272.064597, 126.429076)"><g><path d="M 7.046875 0.1875 C 6.191406 0.1875 5.425781 0.0703125 4.75 -0.15625 C 4.070312 -0.394531 3.484375 -0.722656 2.984375 -1.140625 C 2.484375 -1.554688 2.066406 -2.046875 1.734375 -2.609375 C 1.398438 -3.171875 1.148438 -3.78125 0.984375 -4.4375 C 0.828125 -5.101562 0.75 -5.789062 0.75 -6.5 C 0.75 -7.21875 0.828125 -7.90625 0.984375 -8.5625 C 1.148438 -9.226562 1.398438 -9.84375 1.734375 -10.40625 C 2.066406 -10.96875 2.476562 -11.457031 2.96875 -11.875 C 3.46875 -12.300781 4.054688 -12.628906 4.734375 -12.859375 C 5.410156 -13.097656 6.175781 -13.21875 7.03125 -13.21875 C 7.882812 -13.21875 8.675781 -13.070312 9.40625 -12.78125 C 10.132812 -12.5 10.78125 -12.078125 11.34375 -11.515625 C 11.90625 -10.960938 12.363281 -10.285156 12.71875 -9.484375 L 10.53125 -8.609375 C 10.375 -9.179688 10.125 -9.640625 9.78125 -9.984375 C 9.445312 -10.328125 9.039062 -10.578125 8.5625 -10.734375 C 8.09375 -10.898438 7.578125 -10.984375 7.015625 -10.984375 C 6.328125 -10.984375 5.734375 -10.867188 5.234375 -10.640625 C 4.734375 -10.421875 4.320312 -10.109375 4 -9.703125 C 3.6875 -9.296875 3.453125 -8.828125 3.296875 -8.296875 C 3.148438 -7.765625 3.078125 -7.195312 3.078125 -6.59375 C 3.078125 -5.945312 3.148438 -5.347656 3.296875 -4.796875 C 3.453125 -4.242188 3.691406 -3.757812 4.015625 -3.34375 C 4.335938 -2.925781 4.75 -2.601562 5.25 -2.375 C 5.75 -2.144531 6.347656 -2.03125 7.046875 -2.03125 C 7.890625 -2.03125 8.597656 -2.210938 9.171875 -2.578125 C 9.753906 -2.953125 10.222656 -3.570312 10.578125 -4.4375 L 12.734375 -3.5625 C 12.390625 -2.75 11.9375 -2.066406 11.375 -1.515625 C 10.8125 -0.960938 10.164062 -0.539062 9.4375 -0.25 C 8.707031 0.0390625 7.910156 0.1875 7.046875 0.1875 Z M 7.046875 0.1875 "/></g></g></g><g fill="#ffffff" fill-opacity="1"><g transform="translate(285.236778, 126.429076)"><g><path d="M 7.046875 0.1875 C 6.191406 0.1875 5.425781 0.0703125 4.75 -0.15625 C 4.070312 -0.394531 3.484375 -0.722656 2.984375 -1.140625 C 2.484375 -1.554688 2.066406 -2.046875 1.734375 -2.609375 C 1.398438 -3.171875 1.148438 -3.78125 0.984375 -4.4375 C 0.828125 -5.101562 0.75 -5.789062 0.75 -6.5 C 0.75 -7.21875 0.828125 -7.90625 0.984375 -8.5625 C 1.148438 -9.226562 1.398438 -9.84375 1.734375 -10.40625 C 2.066406 -10.96875 2.476562 -11.457031 2.96875 -11.875 C 3.46875 -12.300781 4.054688 -12.628906 4.734375 -12.859375 C 5.410156 -13.097656 6.175781 -13.21875 7.03125 -13.21875 C 7.882812 -13.21875 8.675781 -13.070312 9.40625 -12.78125 C 10.132812 -12.5 10.78125 -12.078125 11.34375 -11.515625 C 11.90625 -10.960938 12.363281 -10.285156 12.71875 -9.484375 L 10.53125 -8.609375 C 10.375 -9.179688 10.125 -9.640625 9.78125 -9.984375 C 9.445312 -10.328125 9.039062 -10.578125 8.5625 -10.734375 C 8.09375 -10.898438 7.578125 -10.984375 7.015625 -10.984375 C 6.328125 -10.984375 5.734375 -10.867188 5.234375 -10.640625 C 4.734375 -10.421875 4.320312 -10.109375 4 -9.703125 C 3.6875 -9.296875 3.453125 -8.828125 3.296875 -8.296875 C 3.148438 -7.765625 3.078125 -7.195312 3.078125 -6.59375 C 3.078125 -5.945312 3.148438 -5.347656 3.296875 -4.796875 C 3.453125 -4.242188 3.691406 -3.757812 4.015625 -3.34375 C 4.335938 -2.925781 4.75 -2.601562 5.25 -2.375 C 5.75 -2.144531 6.347656 -2.03125 7.046875 -2.03125 C 7.890625 -2.03125 8.597656 -2.210938 9.171875 -2.578125 C 9.753906 -2.953125 10.222656 -3.570312 10.578125 -4.4375 L 12.734375 -3.5625 C 12.390625 -2.75 11.9375 -2.066406 11.375 -1.515625 C 10.8125 -0.960938 10.164062 -0.539062 9.4375 -0.25 C 8.707031 0.0390625 7.910156 0.1875 7.046875 0.1875 Z M 7.046875 0.1875 "/></g></g></g><g fill="#ffffff" fill-opacity="1"><g transform="translate(298.408959, 126.429076)"><g><path d="M 1.671875 0 L 1.671875 -13 L 10.328125 -13 L 10.328125 -10.859375 L 4.015625 -10.859375 L 4.015625 -7.578125 L 9.890625 -7.578125 L 9.890625 -5.421875 L 4.015625 -5.421875 L 4.015625 -2.203125 L 10.328125 -2.203125 L 10.328125 0 Z M 1.671875 0 "/></g></g></g><g fill="#ffffff" fill-opacity="1"><g transform="translate(309.861029, 126.429076)"><g><path d="M 5.390625 0.140625 C 4.816406 0.140625 4.253906 0.0625 3.703125 -0.09375 C 3.148438 -0.25 2.644531 -0.484375 2.1875 -0.796875 C 1.738281 -1.117188 1.359375 -1.519531 1.046875 -2 C 0.734375 -2.476562 0.519531 -3.035156 0.40625 -3.671875 L 2.734375 -4.265625 C 2.785156 -3.722656 2.9375 -3.28125 3.1875 -2.9375 C 3.445312 -2.59375 3.769531 -2.335938 4.15625 -2.171875 C 4.539062 -2.003906 4.960938 -1.921875 5.421875 -1.921875 C 5.890625 -1.921875 6.28125 -1.992188 6.59375 -2.140625 C 6.914062 -2.285156 7.160156 -2.484375 7.328125 -2.734375 C 7.492188 -2.992188 7.578125 -3.273438 7.578125 -3.578125 C 7.578125 -3.910156 7.484375 -4.195312 7.296875 -4.4375 C 7.117188 -4.675781 6.878906 -4.882812 6.578125 -5.0625 C 6.285156 -5.238281 5.953125 -5.398438 5.578125 -5.546875 C 5.210938 -5.703125 4.828125 -5.859375 4.421875 -6.015625 C 4.023438 -6.171875 3.640625 -6.347656 3.265625 -6.546875 C 2.890625 -6.742188 2.550781 -6.976562 2.25 -7.25 C 1.957031 -7.53125 1.722656 -7.859375 1.546875 -8.234375 C 1.367188 -8.617188 1.28125 -9.078125 1.28125 -9.609375 C 1.28125 -10.179688 1.382812 -10.691406 1.59375 -11.140625 C 1.8125 -11.585938 2.109375 -11.960938 2.484375 -12.265625 C 2.867188 -12.566406 3.300781 -12.796875 3.78125 -12.953125 C 4.269531 -13.109375 4.789062 -13.1875 5.34375 -13.1875 C 6.144531 -13.1875 6.890625 -13.003906 7.578125 -12.640625 C 8.273438 -12.273438 8.847656 -11.695312 9.296875 -10.90625 L 7.359375 -9.71875 C 7.128906 -10.164062 6.828125 -10.507812 6.453125 -10.75 C 6.085938 -10.988281 5.6875 -11.109375 5.25 -11.109375 C 4.945312 -11.109375 4.671875 -11.050781 4.421875 -10.9375 C 4.171875 -10.820312 3.972656 -10.660156 3.828125 -10.453125 C 3.679688 -10.242188 3.609375 -10 3.609375 -9.71875 C 3.609375 -9.414062 3.695312 -9.15625 3.875 -8.9375 C 4.0625 -8.71875 4.300781 -8.523438 4.59375 -8.359375 C 4.894531 -8.203125 5.234375 -8.050781 5.609375 -7.90625 C 5.984375 -7.757812 6.367188 -7.609375 6.765625 -7.453125 C 7.160156 -7.296875 7.546875 -7.113281 7.921875 -6.90625 C 8.296875 -6.707031 8.628906 -6.46875 8.921875 -6.1875 C 9.222656 -5.914062 9.460938 -5.582031 9.640625 -5.1875 C 9.816406 -4.789062 9.90625 -4.328125 9.90625 -3.796875 C 9.90625 -3.179688 9.785156 -2.628906 9.546875 -2.140625 C 9.316406 -1.648438 8.992188 -1.234375 8.578125 -0.890625 C 8.160156 -0.554688 7.679688 -0.300781 7.140625 -0.125 C 6.597656 0.0507812 6.015625 0.140625 5.390625 0.140625 Z M 5.390625 0.140625 "/></g></g></g><g fill="#ffffff" fill-opacity="1"><g transform="translate(320.319667, 126.429076)"><g><path d="M 5.390625 0.140625 C 4.816406 0.140625 4.253906 0.0625 3.703125 -0.09375 C 3.148438 -0.25 2.644531 -0.484375 2.1875 -0.796875 C 1.738281 -1.117188 1.359375 -1.519531 1.046875 -2 C 0.734375 -2.476562 0.519531 -3.035156 0.40625 -3.671875 L 2.734375 -4.265625 C 2.785156 -3.722656 2.9375 -3.28125 3.1875 -2.9375 C 3.445312 -2.59375 3.769531 -2.335938 4.15625 -2.171875 C 4.539062 -2.003906 4.960938 -1.921875 5.421875 -1.921875 C 5.890625 -1.921875 6.28125 -1.992188 6.59375 -2.140625 C 6.914062 -2.285156 7.160156 -2.484375 7.328125 -2.734375 C 7.492188 -2.992188 7.578125 -3.273438 7.578125 -3.578125 C 7.578125 -3.910156 7.484375 -4.195312 7.296875 -4.4375 C 7.117188 -4.675781 6.878906 -4.882812 6.578125 -5.0625 C 6.285156 -5.238281 5.953125 -5.398438 5.578125 -5.546875 C 5.210938 -5.703125 4.828125 -5.859375 4.421875 -6.015625 C 4.023438 -6.171875 3.640625 -6.347656 3.265625 -6.546875 C 2.890625 -6.742188 2.550781 -6.976562 2.25 -7.25 C 1.957031 -7.53125 1.722656 -7.859375 1.546875 -8.234375 C 1.367188 -8.617188 1.28125 -9.078125 1.28125 -9.609375 C 1.28125 -10.179688 1.382812 -10.691406 1.59375 -11.140625 C 1.8125 -11.585938 2.109375 -11.960938 2.484375 -12.265625 C 2.867188 -12.566406 3.300781 -12.796875 3.78125 -12.953125 C 4.269531 -13.109375 4.789062 -13.1875 5.34375 -13.1875 C 6.144531 -13.1875 6.890625 -13.003906 7.578125 -12.640625 C 8.273438 -12.273438 8.847656 -11.695312 9.296875 -10.90625 L 7.359375 -9.71875 C 7.128906 -10.164062 6.828125 -10.507812 6.453125 -10.75 C 6.085938 -10.988281 5.6875 -11.109375 5.25 -11.109375 C 4.945312 -11.109375 4.671875 -11.050781 4.421875 -10.9375 C 4.171875 -10.820312 3.972656 -10.660156 3.828125 -10.453125 C 3.679688 -10.242188 3.609375 -10 3.609375 -9.71875 C 3.609375 -9.414062 3.695312 -9.15625 3.875 -8.9375 C 4.0625 -8.71875 4.300781 -8.523438 4.59375 -8.359375 C 4.894531 -8.203125 5.234375 -8.050781 5.609375 -7.90625 C 5.984375 -7.757812 6.367188 -7.609375 6.765625 -7.453125 C 7.160156 -7.296875 7.546875 -7.113281 7.921875 -6.90625 C 8.296875 -6.707031 8.628906 -6.46875 8.921875 -6.1875 C 9.222656 -5.914062 9.460938 -5.582031 9.640625 -5.1875 C 9.816406 -4.789062 9.90625 -4.328125 9.90625 -3.796875 C 9.90625 -3.179688 9.785156 -2.628906 9.546875 -2.140625 C 9.316406 -1.648438 8.992188 -1.234375 8.578125 -0.890625 C 8.160156 -0.554688 7.679688 -0.300781 7.140625 -0.125 C 6.597656 0.0507812 6.015625 0.140625 5.390625 0.140625 Z M 5.390625 0.140625 "/></g></g></g></svg>